<svg width="848" height="876" viewBox="0 0 848 876" fill="none" xmlns="http://www.w3.org/2000/svg">
<path d="M375.029 2.58825C375.029 4.06603 374.186 5.54381 373.343 5.8125C372.36 6.08118 366.459 7.55896 360.278 9.17108C350.023 11.9923 349.039 11.9923 347.494 9.97714C345.949 7.96199 345.106 8.09633 338.363 11.4549C326.702 17.0973 322.909 20.0529 324.455 22.7398C326.14 25.8297 307.877 43.4287 304.365 42.0852C302.82 41.5478 301.134 42.3539 299.448 44.3691C296.358 47.862 293.548 46.7872 293.548 42.0852C293.548 38.7266 291.581 38.0549 288.069 40.0701C285.54 41.6822 280.904 39.5327 280.904 36.8458C280.904 33.6216 278.235 33.2186 273.74 35.7711C269.525 38.1893 269.385 38.1893 266.856 35.0994C263.765 31.4721 261.798 31.3377 259.832 34.8307C258.005 38.0549 253.931 38.3236 251.402 35.5024C248.874 32.6812 247.609 32.9499 245.502 37.1145C243.535 40.8761 240.585 41.5478 235.668 39.5327C233.701 38.7266 233.139 39.264 233.139 41.8165C233.139 46.2499 230.611 48.265 224.991 48.265C220.636 48.265 220.355 48.5337 221.058 51.8923C222.041 56.5943 220.777 58.6095 216.281 59.1468C213.893 59.5499 212.91 60.4903 213.191 62.1024C213.331 63.3115 213.612 65.461 213.893 66.6701C214.034 68.2822 213.191 69.0883 211.364 69.0883C209.398 69.0883 207.852 67.2074 205.745 61.9681C202.233 53.2357 199.985 53.3701 196.332 62.6398C193.944 68.4165 192.961 69.6256 189.308 70.0287C185.796 70.566 184.391 69.76 179.755 64.6549C176.665 61.4307 173.574 59.1468 172.731 59.6842C172.029 60.0872 171.326 63.7145 171.326 67.6105C171.326 73.9246 170.905 75.1337 167.533 77.1489C163.881 79.567 163.6 79.4327 156.294 75.8054C152.22 73.6559 148.427 72.3125 148.006 72.8499C147.444 73.3872 148.006 77.1489 149.411 81.3135C151.799 88.4337 151.799 88.9711 149.27 91.6579C147.865 93.2701 146.741 94.7478 146.601 95.0165C146.601 95.1509 143.089 94.7478 139.015 93.9418C128.619 92.061 127.495 93.6731 133.817 101.331C138.312 106.839 138.593 108.048 137.329 111.541C135.784 115.974 129.602 117.452 131.007 113.153C132.833 106.704 132.833 106.704 127.776 106.704C123.983 106.704 122.859 106.167 122.438 104.018C121.454 97.9721 120.892 97.4347 118.223 99.8529C114.43 102.943 111.058 102.54 110.075 98.6438C108.951 94.3448 106.141 94.3448 104.175 98.6438C102.208 102.808 99.2576 102.943 96.5884 99.0468C94.2001 95.6882 90.688 96.8973 91.6714 100.793C92.6548 104.421 89.2832 106.57 85.6306 104.689C81.697 102.674 79.1683 104.689 81.1351 108.182C83.1018 111.944 81.697 114.093 77.061 114.093C71.8631 114.093 71.5821 117.586 76.6395 119.736C79.7302 121.079 80.5731 120.945 83.2423 117.855C84.9281 115.974 87.4569 114.093 88.8617 113.69C90.1261 113.153 91.25 111.944 91.25 111.003C91.25 106.301 109.513 104.824 118.223 108.72C121.876 110.332 124.685 117.049 122.016 117.855C121.314 118.124 120.752 118.93 120.752 119.601C120.752 120.407 124.826 120.81 130.164 120.542L139.577 120.139L142.808 112.078C144.634 107.645 148.849 100.525 152.501 96.2256L158.823 88.4337L164.302 94.2105C167.393 97.4347 169.781 100.659 169.921 101.465C169.921 102.271 168.517 104.152 166.69 105.764C164.162 108.048 162.476 108.451 157.98 107.779L152.361 106.973L156.154 110.869C158.823 113.69 159.806 115.705 159.104 117.855C158.261 121.348 160.79 121.885 162.616 118.527C163.6 116.915 165.004 116.646 168.376 117.183L172.872 118.124L170.062 114.631C166.971 110.869 167.533 108.182 172.029 104.689C173.714 103.346 174.979 103.346 177.648 104.421C181.722 106.167 181.863 107.107 179.053 113.69C176.524 119.198 176.384 120.81 178.35 120.81C179.053 120.81 180.879 118.661 182.284 115.974L184.953 111.003L188.044 115.974C193.101 123.632 196.192 121.751 191.416 113.959C188.465 109.257 189.449 108.182 195.209 109.391C198.721 110.197 199.564 110.869 198.861 112.884C196.192 121.214 196.052 120.81 200.828 120.81C204.762 120.81 205.324 120.407 204.621 117.721C204.34 116.108 203.497 113.825 203.076 112.481C202.233 110.869 203.076 110.063 206.447 109.391C212.348 108.182 213.05 109.123 210.1 114.899C205.885 123.497 210.1 122.154 215.719 113.287C217.124 111.003 217.546 111.272 219.512 115.705C222.884 123.363 226.396 122.423 223.306 114.765C222.322 112.212 222.463 110.197 224.008 107.242C226.677 102.54 227.52 102.405 231.454 106.436C235.247 110.332 235.247 111.138 231.454 115.168L228.223 118.527L233.561 117.586C237.635 116.915 239.04 117.183 239.602 118.795C241.007 122.02 242.973 121.079 242.973 117.183C242.973 115.168 244.378 112.078 246.205 110.332L249.295 106.973L243.535 107.779C238.337 108.585 237.635 108.317 234.685 104.555L231.594 100.525L237.214 94.6135L242.833 88.8367L248.031 94.2105C252.386 98.9125 258.848 110.332 261.798 118.527C262.36 120.407 264.327 120.81 272.475 120.81C277.814 120.81 282.309 120.273 282.309 119.601C282.309 118.795 278.516 117.586 274.021 116.646C266.434 115.302 265.451 114.765 264.749 111.272C263.765 107.107 265.17 103.883 269.525 100.122C271.211 98.6438 272.475 96.36 272.475 95.0165C272.475 92.464 270.789 92.3297 258.848 94.7478C256.741 95.1509 254.915 94.2105 252.948 91.7923C250.419 88.7024 250.279 88.0307 252.245 82.9256C254.212 77.4175 254.774 72.4468 253.51 72.4468C253.088 72.4468 249.576 73.9246 245.783 75.8054C239.883 78.6266 238.337 78.8953 235.247 77.5519C233.28 76.7458 231.735 75.1337 231.594 73.9246C231.032 66.1327 230.189 59.8186 229.627 59.2812C229.206 58.8782 227.239 59.9529 225.272 61.8337C221.901 64.6549 221.76 64.7893 223.025 62.2367C225.553 57.6691 237.214 48.1307 244.097 45.1751C249.295 42.8913 253.369 42.2196 263.484 42.2196C274.723 42.2196 277.252 42.6226 284.978 46.1155C289.614 48.265 293.548 50.8175 293.548 51.6236C293.548 52.564 292.564 55.2509 291.3 57.5347C289.193 61.4307 289.193 62.2367 291.019 63.9832C292.845 65.7297 292.845 66.9388 290.598 74.1933C289.333 78.761 287.788 84.1347 287.367 86.1499C286.805 88.568 285.54 89.9115 283.854 89.9115C281.888 89.9115 281.185 91.2549 280.483 96.2256C279.218 106.436 280.764 115.437 283.714 115.437C285.119 115.437 286.524 116.646 286.945 118.258C287.929 121.751 291.441 120.945 291.441 117.318C291.441 113.556 296.92 113.959 297.481 117.721C298.184 122.423 301.977 121.617 301.977 116.78C301.977 112.75 301.977 112.75 310.266 112.75C318.273 112.75 318.695 112.884 319.116 116.377C319.397 118.258 320.38 120.139 321.364 120.542C322.769 120.945 323.05 119.87 322.207 115.974C317.149 91.3893 327.967 65.3266 348.899 50.6832C355.08 46.3842 356.766 45.9812 356.766 48.9367C356.766 50.1458 355.502 50.9519 353.816 50.9519C351.428 50.9519 351.006 51.4893 351.849 54.8478C352.411 57.6691 352.13 58.8782 350.585 59.4155C347.775 60.4903 347.634 63.0428 350.444 63.0428C352.832 63.0428 353.254 66.4014 351.147 67.7448C348.899 69.0883 349.601 70.7004 352.692 71.5064C355.08 72.1782 355.502 72.9842 354.799 75.8054C353.956 78.761 354.237 79.2984 356.345 78.8953C359.857 78.3579 362.385 80.2388 361.402 82.5226C360.559 84.9408 363.931 85.2095 366.178 83.06C367.302 81.9852 368.286 82.5226 369.972 84.6721C372.219 87.762 372.219 87.762 374.186 85.2095C376.012 82.9256 376.715 82.7913 379.103 84.1347C383.037 86.4186 383.458 86.2842 383.458 83.06C383.458 80.9105 384.16 80.3731 387.251 80.7761C390.482 81.1792 391.185 80.6418 391.185 77.8206C391.185 75.5367 392.028 74.462 393.573 74.462C396.523 74.462 396.664 74.059 395.259 70.566C394.556 68.8196 395.118 67.4761 396.945 66.1327C399.614 64.2519 399.614 64.2519 396.945 62.2367C394.697 60.759 394.556 59.9529 395.821 58.7438C398.49 56.1913 397.788 53.6388 394.556 53.6388C392.168 53.6388 391.747 53.1014 392.59 49.7428C393.432 46.2499 393.152 45.9812 389.92 46.5186C386.97 47.0559 386.268 46.6529 386.268 44.5034C386.268 41.2792 384.02 39.5327 382.756 41.5478C381.351 43.563 377.839 43.16 377.839 40.8761C377.839 39.264 379.946 38.861 388.094 38.861C406.498 38.861 422.794 45.3095 435.437 57.5347C450.048 71.7751 456.089 87.4933 454.684 108.451C454.122 115.705 454.262 120.81 455.105 120.81C455.808 120.81 456.791 118.795 457.353 116.243C458.196 111.675 458.196 111.675 466.485 111.138L474.914 110.735L474.492 115.437C474.211 118.93 474.633 120.139 476.599 120.542C478.426 120.945 478.988 120.139 478.988 117.586C478.988 115.034 479.69 114.093 481.797 114.093C483.905 114.093 484.607 115.034 484.607 117.452C484.607 119.601 485.45 120.81 486.714 120.81C487.838 120.81 488.822 119.601 488.822 118.258C488.822 116.511 489.945 115.437 492.053 115.168C495.003 114.765 495.143 114.228 495.143 102.674C495.143 91.3893 495.003 90.5832 492.193 90.1802C489.945 89.9115 488.962 88.568 488.4 84.9408C487.276 78.8953 488.4 77.5519 497.672 73.6559C508.489 69.0883 525.91 69.2226 536.727 73.9246C544.594 77.4175 556.254 86.8216 556.254 89.6428C556.254 90.5832 554.709 91.2549 552.742 91.2549C548.106 91.2549 548.387 93.1357 553.725 97.7034C559.766 102.943 558.502 108.048 550.635 111.003C547.544 112.212 545.015 113.556 545.015 114.093C545.015 114.631 548.387 116.377 552.461 117.855C563.419 121.885 569.6 121.348 563.981 116.78C559.907 113.556 561.452 110.466 567.633 109.66C573.393 108.988 576.344 107.376 573.815 106.57C573.112 106.301 570.303 104.824 567.633 103.211C562.997 100.525 562.857 100.39 565.526 97.9721C566.931 96.6287 569.881 95.0165 571.848 94.6135C575.079 93.8074 575.922 94.3448 577.748 97.9721C580.699 103.48 579.434 115.034 575.782 116.915C574.236 117.586 573.112 118.795 573.112 119.601C573.112 120.407 574.096 120.407 575.782 119.467C577.748 118.527 578.732 118.661 579.153 119.87C579.575 121.079 580.277 121.079 582.384 119.87C585.054 118.124 596.995 112.75 597.838 112.75C598.119 112.75 598.4 114.496 598.4 116.78C598.4 120.139 598.962 120.81 601.631 120.81C605.986 120.81 606.969 119.736 605.143 116.78C603.176 113.69 606.969 107.376 610.762 107.376C615.96 107.376 618.629 110.6 617.646 115.974C616.944 120.542 617.084 120.81 620.596 120.81C622.703 120.81 626.918 119.198 630.009 117.452C637.173 113.153 639.14 113.287 639.14 117.586C639.14 122.154 643.917 121.482 644.479 116.78C645.181 112.212 651.362 107.107 654.734 108.048C656.982 108.72 661.618 115.034 661.618 117.452C661.618 117.855 660.213 118.124 658.527 118.124C656.701 118.124 654.313 118.795 653.189 119.467C648.974 122.02 664.006 120.81 670.609 117.989C678.195 114.899 678.335 112.884 671.311 110.735C664.989 108.72 664.006 102.808 669.344 97.9721C674.683 93.2701 673.84 91.2549 666.816 91.2549C661.618 91.2549 660.353 90.7175 659.089 87.8963C657.684 85.0751 657.825 83.463 660.213 79.2984C661.618 76.4771 662.601 73.7903 662.18 73.3872C661.758 72.9842 658.808 73.5216 655.577 74.5963C650.238 76.4771 649.677 76.3428 647.007 73.7903C644.9 71.7751 644.338 69.76 644.619 65.0579C644.76 61.6994 644.479 59.0125 644.057 59.0125C643.495 59.0125 641.247 60.4903 638.859 62.3711C636.611 64.2519 633.942 65.7297 632.959 65.7297C629.868 65.7297 626.637 62.3711 625.513 57.8034C623.827 51.6236 622.142 51.3549 618.348 56.9973C613.993 63.5802 608.374 63.5802 604.581 56.9973C601.069 50.8175 599.102 51.0862 597.557 57.9377C596.573 62.3711 595.449 63.7145 592.359 64.7893C589.268 65.7297 587.863 65.3266 584.211 62.5054C578.029 57.5347 577.046 58.0721 578.17 65.5953C578.872 71.3721 578.732 72.3125 575.922 74.1933C573.112 76.0741 572.129 76.0741 567.072 74.3276C563.981 73.2529 561.171 72.7155 560.75 73.1186C560.328 73.5216 561.171 76.2085 562.576 79.0297C563.981 81.9852 564.683 85.3438 564.121 86.5529C562.717 90.0458 560.469 87.4933 560.469 82.2539C560.469 78.0893 560.188 77.5519 557.378 78.2236C552.602 79.4327 549.23 76.8802 549.23 72.3125C549.23 68.8196 548.809 68.2822 546.842 69.0883C540.239 71.6408 539.256 71.5064 537.57 67.2074C536.024 63.0428 533.355 61.8337 531.669 64.3862C530.124 66.8044 524.364 65.7297 521.976 62.6398L519.869 59.6842L517.059 62.6398C513.968 66.267 511.018 66.5357 508.489 63.7145C505.961 60.759 503.572 61.2963 501.746 65.0579C500.06 68.6852 497.251 69.2226 492.896 67.0731C490.788 65.864 490.086 66.1327 489.384 68.0135C486.855 75.8054 486.574 75.9398 484.748 70.7004C483.062 66.1327 483.202 65.3266 485.45 63.8489C487.838 62.1024 487.557 61.4307 481.797 51.7579C476.459 42.8913 475.054 41.4135 472.385 41.9509C468.311 42.6226 450.469 26.2327 451.593 22.7398C452.436 20.0529 446.817 15.4852 436.983 10.6489C431.223 7.82765 430.52 7.82765 428.975 9.97714C427.43 11.9923 426.587 11.9923 417.877 9.43977C412.679 7.82765 406.919 6.61856 405.233 6.61856C402.845 6.61856 401.721 5.67815 401.44 3.52866C401.019 0.707446 400.316 0.573103 388.094 0.170072C375.731 -0.232958 375.029 -0.0986146 375.029 2.58825ZM386.268 11.858C386.268 13.2014 385.003 14.6792 383.458 15.0822C381.21 15.6196 380.648 15.0822 380.648 12.5297C380.648 10.2458 381.491 9.30543 383.458 9.30543C385.284 9.30543 386.268 10.2458 386.268 11.858ZM396.102 11.9923C396.102 13.7388 395.118 14.6792 393.292 14.6792C391.466 14.6792 390.482 13.7388 390.482 11.9923C390.482 10.2458 391.466 9.30543 393.292 9.30543C395.118 9.30543 396.102 10.2458 396.102 11.9923ZM376.434 13.3357C376.434 16.4256 371.517 17.0973 370.393 14.1418C369.41 11.7236 370.533 10.6489 373.905 10.6489C375.45 10.6489 376.434 11.5893 376.434 13.3357ZM405.936 13.3357C405.936 15.0822 404.952 16.0226 403.126 16.0226C401.3 16.0226 400.316 15.0822 400.316 13.3357C400.316 11.5893 401.3 10.6489 403.126 10.6489C404.952 10.6489 405.936 11.5893 405.936 13.3357ZM366.178 14.1418C366.881 16.0226 364.633 18.5751 362.245 18.7095C360.559 18.7095 359.857 13.4701 361.542 12.7984C364.352 11.7236 365.336 11.9923 366.178 14.1418ZM415.067 15.3509C415.067 19.1125 410.993 18.7095 410.431 14.9478C410.01 12.3953 410.431 11.858 412.538 12.261C413.943 12.5297 415.067 13.8731 415.067 15.3509ZM356.766 17.2317C356.766 18.7095 356.064 20.3216 355.221 20.859C353.113 22.0681 350.585 19.2468 351.568 16.8287C352.832 13.7388 356.766 14.1418 356.766 17.2317ZM423.918 15.7539C426.025 17.0973 424.62 21.3963 422.091 21.3963C419.563 21.3963 418.439 19.3812 419.422 16.8287C420.406 14.4105 421.248 14.2761 423.918 15.7539ZM347.494 20.859C348.477 23.4115 347.354 25.4266 344.825 25.4266C342.296 25.4266 340.891 21.1276 342.998 19.7842C345.668 18.3064 346.511 18.4408 347.494 20.859ZM383.88 22.0681C382.896 24.6206 381.21 24.6206 380.227 22.2024C379.805 21.1276 380.086 19.9186 381.07 19.6499C383.599 18.8438 384.863 19.9186 383.88 22.0681ZM391.887 27.5761C391.887 35.2337 390.201 36.8458 386.83 32.4125C384.301 29.3226 384.441 25.964 387.111 22.0681C390.342 17.366 391.887 19.1125 391.887 27.5761ZM433.611 20.859C434.735 23.6802 431.785 26.5014 429.678 24.4862C427.851 22.7398 428.975 18.7095 431.223 18.7095C432.066 18.7095 433.049 19.6499 433.611 20.859ZM377.277 22.3367C378.26 23.6802 379.244 25.8297 379.244 27.1731C379.244 31.2034 374.046 37.1145 369.831 37.7862C367.583 38.1893 364.914 38.861 363.79 39.3984C362.245 39.9357 360.559 38.3236 357.89 33.6216C355.642 29.9943 353.956 26.7701 353.956 26.367C353.956 25.4266 368.848 20.859 374.186 20.1872C374.889 20.1872 376.293 21.1276 377.277 22.3367ZM398.911 28.1135C398.911 34.4276 398.49 36.1741 396.804 36.1741C395.118 36.1741 394.697 34.4276 394.697 28.1135C394.697 21.7994 395.118 20.0529 396.804 20.0529C398.49 20.0529 398.911 21.7994 398.911 28.1135ZM410.853 22.2024C417.315 23.6802 429.818 29.1883 429.818 30.5317C429.818 31.2034 428.132 34.562 426.165 38.0549L422.513 44.2347L418.158 41.9509C415.629 40.7418 411.134 38.9953 408.043 38.1893L402.423 36.5771L402.002 28.2478C401.581 20.7246 401.862 19.9186 404.109 20.5903C405.514 20.9933 408.605 21.665 410.853 22.2024ZM442.462 28.1135C440.776 31.2034 436.842 30.263 436.842 26.9044C436.842 23.5458 438.247 22.6054 441.197 24.2175C443.305 25.2923 443.586 26.0984 442.462 28.1135ZM339.205 25.4266C339.767 26.2327 339.346 27.8448 338.363 28.9196C336.817 30.666 336.396 30.666 334.569 28.9196C333.446 27.8448 333.024 26.367 333.446 25.561C334.71 23.6802 338.082 23.6802 339.205 25.4266ZM355.221 34.6963C357.047 37.7862 358.171 40.7418 357.609 41.1448C357.187 41.5478 354.94 41.1448 352.551 40.2044C348.899 38.7266 348.337 37.9206 348.337 33.2186C348.337 26.5014 350.725 26.9044 355.221 34.6963ZM331.057 31.6064C331.479 32.6812 331.198 34.2933 330.214 35.2337C328.248 37.1145 323.612 33.2186 325.016 30.9347C326.421 28.7852 330.074 29.1883 331.057 31.6064ZM450.188 30.8004C450.75 31.6064 450.329 33.0842 449.486 34.2933C447.379 36.7115 443.586 34.2933 444.85 31.3377C445.693 29.1883 448.924 28.7852 450.188 30.8004ZM345.527 33.4872C345.527 36.5771 343.701 36.9802 341.453 34.2933C340.189 32.8155 340.189 32.2782 341.594 31.7408C344.825 30.3973 345.527 30.8004 345.527 33.4872ZM384.02 32.8155C384.441 34.0246 383.88 35.2337 382.615 35.7711C379.946 36.7115 378.963 35.7711 380.086 32.9499C381.21 30.263 382.896 30.1287 384.02 32.8155ZM442.181 37.5175C449.626 43.0256 460.022 54.1761 460.022 56.46C460.022 57.266 457.072 59.4155 453.56 61.2963L447.238 64.7893L440.354 57.8034C436.561 53.9074 431.785 49.7428 429.537 48.5337C427.43 47.3246 425.603 45.8468 425.603 45.1751C425.603 43.2943 432.768 32.1438 434.033 32.1438C434.735 32.1438 438.388 34.562 442.181 37.5175ZM322.909 41.0105C320.942 42.8913 320.521 42.8913 318.835 41.0105C317.43 39.264 317.43 38.4579 318.835 36.7115C320.521 34.8307 320.942 34.8307 322.909 36.7115C324.876 38.7266 324.876 38.9953 322.909 41.0105ZM344.403 44.7721C343.701 52.2953 332.322 63.0428 325.297 63.0428C321.223 63.0428 319.959 62.3711 318.273 59.1468C316.166 55.3852 316.306 54.9822 320.24 50.2802C322.488 47.5933 326.983 43.0256 330.355 40.2044L336.396 35.0994L340.61 37.3832C344.263 39.3984 344.684 40.3388 344.403 44.7721ZM457.493 36.9802C458.617 39.8014 455.667 42.6226 453.56 40.6074C451.734 38.861 452.857 34.8307 455.105 34.8307C455.948 34.8307 456.932 35.7711 457.493 36.9802ZM372.219 41.5478C372.219 42.2196 371.657 42.8913 370.814 42.8913C370.112 42.8913 369.41 42.2196 369.41 41.5478C369.41 40.7418 370.112 40.2044 370.814 40.2044C371.657 40.2044 372.219 40.7418 372.219 41.5478ZM350.585 45.3095C348.056 47.7276 346.23 46.6529 347.354 43.6973C347.915 42.3539 349.18 41.9509 350.444 42.4883C352.551 43.16 352.551 43.4287 350.585 45.3095ZM316.868 44.9064C318.273 48.1307 316.166 49.7428 313.075 48.1307C310.828 47.0559 310.547 46.3842 311.951 44.7721C314.059 42.3539 315.885 42.3539 316.868 44.9064ZM363.79 44.2347C363.79 44.9064 363.228 45.5782 362.385 45.5782C361.683 45.5782 360.981 44.9064 360.981 44.2347C360.981 43.4287 361.683 42.8913 362.385 42.8913C363.228 42.8913 363.79 43.4287 363.79 44.2347ZM464.237 44.2347C464.799 45.0408 464.377 46.6529 463.394 47.7276C461.849 49.4741 461.427 49.4741 459.601 47.7276C458.477 46.6529 458.055 45.1751 458.477 44.3691C459.741 42.4883 463.113 42.4883 464.237 44.2347ZM373.624 51.2206C373.624 56.9973 368.848 61.6994 362.807 61.6994C358.873 61.6994 358.171 61.162 358.171 58.6095C358.171 54.1761 360.7 52.0266 364.071 53.7731C366.6 54.9822 366.74 54.8478 365.897 52.2953C364.774 49.0711 366.881 46.9216 371.236 46.9216C373.062 46.9216 373.624 47.9963 373.624 51.2206ZM379.665 50.2802C378.963 52.0266 376.434 53.2357 376.434 51.7579C376.434 49.7428 378.401 47.0559 379.384 47.5933C379.946 47.9963 380.227 49.2054 379.665 50.2802ZM310.828 55.1165C309.844 56.0569 308.158 56.3256 306.894 55.7883C305.068 55.1165 304.927 54.4448 306.332 52.161C307.737 49.4741 308.018 49.4741 310.125 51.4893C311.811 53.1014 311.951 54.0418 310.828 55.1165ZM469.856 53.1014C469.856 54.4448 468.732 55.7883 467.468 56.0569C464.939 56.46 463.815 52.4297 465.923 50.4145C467.608 48.9367 469.856 50.4145 469.856 53.1014ZM386.549 53.2357C389.218 55.5196 389.92 59.0125 387.673 59.0125C386.97 59.0125 386.268 59.5499 386.268 60.3559C386.268 61.0276 387.251 61.6994 388.375 61.6994C390.763 61.6994 391.185 65.3266 389.077 68.4165C387.954 70.163 387.251 70.163 383.88 68.1478C378.963 65.3266 377.558 59.6842 380.508 54.5792C383.037 50.2802 383.177 50.2802 386.549 53.2357ZM306.753 62.3711C305.77 64.5206 300.572 65.1923 300.572 63.1771C300.572 59.4155 302.398 57.8034 304.927 59.0125C306.332 59.8186 307.175 61.2963 306.753 62.3711ZM475.476 63.0428C474.352 64.9236 470.98 64.7893 469.716 62.7741C469.154 61.9681 469.856 60.4903 471.401 59.4155C473.509 57.9377 474.071 57.9377 475.195 59.6842C475.756 60.759 475.897 62.3711 475.476 63.0428ZM316.025 60.8933C316.025 63.0428 313.497 65.0579 312.232 63.8489C311.108 62.7741 312.935 59.0125 314.621 59.0125C315.323 59.0125 316.025 59.8186 316.025 60.8933ZM376.434 63.1771C376.434 64.7893 375.45 65.7297 373.624 65.7297C370.533 65.7297 369.55 61.0276 372.641 59.9529C375.169 59.1468 376.434 60.2216 376.434 63.1771ZM463.534 61.9681C463.534 62.9085 460.444 65.3266 456.651 67.3418C451.031 70.4317 449.626 70.7004 448.924 69.0883C448.502 67.8792 450.188 65.9984 454.122 63.7145C460.584 60.0872 463.534 59.5499 463.534 61.9681ZM361.261 65.9984C359.997 67.2074 359.154 67.2074 357.89 65.9984C356.626 64.7893 356.906 64.3862 359.576 64.3862C362.245 64.3862 362.526 64.7893 361.261 65.9984ZM321.083 70.0287C323.05 73.7903 323.05 74.865 320.802 83.06C317.43 95.5539 310.828 100.793 304.225 95.9569C301.134 93.6731 301.556 86.9559 305.63 75.6711C308.58 67.2074 309.563 66.1327 314.621 65.9984C317.992 65.9984 319.257 66.8044 321.083 70.0287ZM326.983 68.0135C326.421 70.9691 323.893 70.7004 323.331 67.8792C323.05 66.5357 323.752 65.7297 325.157 65.7297C326.562 65.7297 327.264 66.6701 326.983 68.0135ZM373.765 68.4165C375.029 68.4165 376.855 70.2973 377.839 72.5812C379.384 76.0741 379.384 76.8802 377.698 77.9549C374.186 80.1044 370.814 79.2984 370.814 76.4771C370.814 74.9994 370.253 73.7903 369.41 73.7903C368.707 73.7903 368.005 74.3276 368.005 75.1337C368.005 77.4175 364.352 76.6115 361.683 73.7903C358.873 70.7004 358.733 70.8347 364.493 68.0135C367.021 66.6701 369.269 66.4014 370.112 67.2074C370.814 67.8792 372.5 68.4165 373.765 68.4165ZM470.137 74.7307C471.823 79.164 473.509 85.4781 474.071 88.8367L475.054 94.8822L466.906 94.7478L458.758 94.6135L456.37 86.5529C454.965 82.1196 453.56 77.1489 452.998 75.6711C452.155 73.2529 453.138 72.1782 458.196 69.3569C461.427 67.4761 464.939 66.1327 465.642 66.267C466.485 66.5357 468.451 70.2973 470.137 74.7307ZM301.696 68.1478C303.382 69.2226 302.679 73.7903 300.713 73.7903C298.324 73.6559 296.077 71.1034 296.779 69.2226C297.762 66.8044 299.027 66.5357 301.696 68.1478ZM478.988 67.6105C478.988 67.8792 479.409 69.0883 479.831 70.163C480.673 72.3125 475.335 74.3276 473.93 72.3125C472.666 70.2973 474.492 67.0731 476.88 67.0731C478.004 67.0731 478.988 67.3418 478.988 67.6105ZM608.795 71.2377C611.465 73.6559 611.465 73.7903 609.076 78.2236C603.738 87.4933 584.351 89.2398 584.351 80.3731C584.351 78.3579 585.475 75.4024 586.88 73.7903L589.409 70.8347L593.202 75.6711C595.449 78.3579 597.697 80.5074 598.54 80.5074C599.243 80.5074 599.804 77.4175 599.804 73.6559C599.804 67.2074 599.945 66.9388 603.036 67.7448C604.721 68.2822 607.391 69.76 608.795 71.2377ZM613.993 68.5509C615.539 69.2226 616.382 70.4317 615.96 71.2377C614.696 73.1186 613.291 72.7155 611.324 69.76C609.357 66.6701 609.919 66.4014 613.993 68.5509ZM621.58 68.4165C621.158 69.0883 620.175 69.76 619.332 69.76C618.629 69.76 618.067 69.0883 618.067 68.4165C618.067 67.6105 619.051 67.0731 620.315 67.0731C621.439 67.0731 622.001 67.6105 621.58 68.4165ZM596.995 71.9095C596.995 72.9842 596.433 73.5216 595.59 73.1186C594.888 72.7155 594.185 71.7751 594.185 70.9691C594.185 70.2973 594.888 69.76 595.59 69.76C596.433 69.76 596.995 70.7004 596.995 71.9095ZM629.306 70.9691C629.306 72.5812 623.827 74.3276 622.563 73.1186C621.58 72.1782 624.951 69.76 627.62 69.76C628.463 69.76 629.306 70.2973 629.306 70.9691ZM384.863 73.9246C384.863 74.5963 384.301 75.1337 383.458 75.1337C382.756 75.1337 382.053 74.1933 382.053 72.9842C382.053 71.9095 382.756 71.3721 383.458 71.7751C384.301 72.1782 384.863 73.1186 384.863 73.9246ZM620.877 75.6711C620.877 76.7458 620.034 78.2236 618.91 79.0297C617.365 80.2388 616.803 79.9701 616.241 77.9549C615.539 75.1337 617.787 72.0438 619.753 73.2529C620.315 73.6559 620.877 74.7307 620.877 75.6711ZM213.893 74.9994C216.843 75.6711 219.512 76.4771 219.793 76.7458C220.074 77.0145 219.231 80.6418 217.967 84.9408C216.281 90.1802 215.017 92.464 213.753 91.9266C212.629 91.5236 210.381 91.2549 208.555 91.2549C205.885 91.2549 204.762 90.1802 203.497 85.8812C201.671 79.9701 200.126 79.9701 198.721 85.8812C197.878 89.7771 196.613 90.4489 189.168 91.5236C187.061 91.7923 185.937 90.3145 183.97 84.1347L181.441 76.4771L185.234 75.6711C187.201 75.268 189.589 74.7307 190.292 74.462C193.242 73.5216 208.836 73.9246 213.893 74.9994ZM639.14 74.9994C639.14 75.6711 638.157 78.3579 636.892 81.1792C635.769 83.866 635.066 86.4186 635.488 86.8216C635.909 87.2246 638.438 86.2842 641.247 84.6721C644.057 83.1943 646.867 81.8509 647.429 81.8509C649.115 81.8509 649.958 87.2246 648.974 91.2549C647.007 98.9125 629.306 91.6579 626.497 81.9852C625.654 78.761 625.654 76.7458 626.778 75.5367C628.463 73.6559 639.14 73.1186 639.14 74.9994ZM299.167 79.164C299.167 80.9105 298.184 81.8509 296.358 81.8509C294.531 81.8509 293.548 80.9105 293.548 79.164C293.548 77.4175 294.531 76.4771 296.358 76.4771C298.184 76.4771 299.167 77.4175 299.167 79.164ZM482.921 79.567C483.202 81.0448 482.5 81.8509 480.533 81.8509C477.302 81.8509 475.616 79.8357 476.88 77.6862C478.285 75.6711 482.359 76.8802 482.921 79.567ZM580.98 84.2691C579.294 85.8812 578.451 83.1943 579.575 79.567L580.699 75.8054L581.26 79.567C581.541 81.7165 581.401 83.7317 580.98 84.2691ZM614.274 81.9852C611.886 84.2691 609.076 82.1196 611.184 79.7014C612.308 78.3579 613.291 78.0893 614.415 79.164C615.398 80.1044 615.398 80.9105 614.274 81.9852ZM643.355 79.0297C643.355 79.8357 642.793 80.7761 641.95 81.1792C641.247 81.5822 640.545 81.0448 640.545 79.9701C640.545 78.761 641.247 77.8206 641.95 77.8206C642.793 77.8206 643.355 78.3579 643.355 79.0297ZM179.615 82.9256C182.705 90.0458 182.144 93.8074 177.929 96.36L173.995 98.6438L168.376 92.867C165.285 89.7771 163.178 86.5529 163.6 85.8812C164.723 84.2691 174.136 79.2984 176.384 79.164C177.227 79.164 178.772 80.9105 179.615 82.9256ZM233.561 82.5226C236.371 84.4034 238.759 86.4186 238.759 86.9559C238.618 88.165 233.139 94.2105 230.189 96.36C228.363 97.7034 227.099 97.7034 224.148 96.4943C220.074 94.6135 219.372 90.5832 222.041 83.3287C223.867 78.2236 226.537 78.0893 233.561 82.5226ZM624.53 84.1347C624.108 84.5377 622.703 84.5377 621.439 84.0004C619.613 83.3287 619.472 82.7913 621.018 81.0448C622.563 79.164 622.844 79.164 624.108 81.1792C624.811 82.3883 624.951 83.7317 624.53 84.1347ZM575.22 84.4034C574.798 85.2095 573.674 85.8812 572.831 85.8812C571.989 85.8812 571.989 85.0751 573.112 83.866C575.079 81.5822 576.765 82.1196 575.22 84.4034ZM297.762 88.568C297.762 90.3145 296.779 91.2549 295.234 91.2549C291.862 91.2549 290.738 90.1802 291.722 87.762C292.845 84.8064 297.762 85.4781 297.762 88.568ZM484.607 88.568C484.607 90.3145 483.624 91.2549 481.797 91.2549C479.971 91.2549 478.988 90.3145 478.988 88.568C478.988 86.8216 479.971 85.8812 481.797 85.8812C483.624 85.8812 484.607 86.8216 484.607 88.568ZM583.087 89.7771C584.211 92.464 583.93 92.7327 581.12 91.7923C577.046 90.5832 576.765 90.4489 577.889 87.8963C579.013 84.9408 581.682 85.8812 583.087 89.7771ZM590.392 88.165C591.656 89.3741 588.566 92.7327 587.02 91.7923C585.054 90.7175 585.475 87.2246 587.582 87.2246C588.706 87.2246 589.971 87.6276 590.392 88.165ZM613.572 90.8519C613.853 92.5984 614.415 93.9418 614.836 93.9418C615.117 93.9418 616.663 92.5984 618.067 90.8519C620.737 87.8963 620.737 87.8963 620.456 96.2256C620.175 104.958 619.613 105.898 616.382 102.808C615.258 101.868 612.167 100.256 609.217 99.3155C606.407 98.2408 602.333 96.0913 600.226 94.4792L596.292 91.3893L601.209 89.3741C607.953 86.4186 613.01 87.0903 613.572 90.8519ZM574.517 89.7771C574.517 91.1206 571.146 92.5984 568.476 92.5984C567.493 92.5984 568.055 91.6579 569.46 90.5832C572.55 88.2994 574.517 88.0307 574.517 89.7771ZM654.594 94.2105C654.594 95.5539 653.61 96.6287 652.346 96.6287C650.8 96.6287 650.379 95.9569 650.941 94.4792C651.362 93.2701 651.784 91.3893 651.784 90.1802C651.784 88.165 652.065 88.165 653.189 89.9115C653.891 90.9862 654.594 93.0014 654.594 94.2105ZM629.868 94.0761C635.628 98.5095 637.033 101.734 634.083 104.824C631.835 107.242 631.835 107.376 634.645 107.376C639.281 107.376 639.702 109.929 635.347 111.406C633.24 112.212 629.728 113.69 627.761 114.765L624.249 116.646L623.968 103.883C623.827 97.0317 624.249 91.2549 624.951 91.2549C625.513 91.2549 627.761 92.464 629.868 94.0761ZM199.423 98.2408L201.249 102.674L202.654 98.2408C204.059 93.9418 204.34 93.8074 209.117 94.6135C215.719 95.8226 216.703 97.5691 213.05 102.271C210.521 105.495 209.257 106.033 202.795 106.033C198.861 106.033 193.523 105.63 191.135 105.227C187.341 104.421 186.78 103.749 186.78 99.8529C186.78 96.36 187.482 95.4196 190.011 94.8822C196.754 93.6731 197.737 93.9418 199.423 98.2408ZM583.508 95.0165C583.789 95.5539 583.508 96.8973 582.806 97.9721C581.682 99.7186 581.401 99.7186 580.137 97.9721C579.434 96.8973 578.732 95.5539 578.732 94.8822C578.732 93.5388 582.665 93.6731 583.508 95.0165ZM599.523 97.5691C602.333 99.5842 605.283 101.599 605.986 102.137C606.688 102.674 605.002 104.152 602.474 105.227C599.804 106.436 595.59 108.854 592.921 110.735C590.252 112.616 586.88 114.093 585.335 114.093C583.087 114.093 582.806 113.422 583.508 110.332C585.896 101.062 587.161 99.4499 591.937 100.256C595.449 100.928 596.011 100.659 594.607 99.1812C592.78 97.4347 592.078 93.9418 593.623 93.9418C594.045 93.9418 596.714 95.5539 599.523 97.5691ZM296.358 97.9721C296.358 99.7186 295.374 100.659 293.548 100.659C291.722 100.659 290.738 99.7186 290.738 97.9721C290.738 96.2256 291.722 95.2852 293.548 95.2852C295.374 95.2852 296.358 96.2256 296.358 97.9721ZM486.012 97.9721C486.012 99.7186 485.028 100.659 483.202 100.659C481.376 100.659 480.392 99.7186 480.392 97.9721C480.392 96.2256 481.376 95.2852 483.202 95.2852C485.028 95.2852 486.012 96.2256 486.012 97.9721ZM658.808 98.7781C658.808 99.8529 658.246 100.39 657.403 99.9872C656.701 99.5842 655.998 98.2408 655.998 97.166C655.998 96.0913 656.701 95.5539 657.403 95.9569C658.246 96.36 658.808 97.7034 658.808 98.7781ZM474.492 99.5842C474.914 101.599 473.93 102.002 467.327 102.002C459.179 102.002 457.774 101.465 458.758 98.6438C459.32 97.4347 461.989 96.8973 466.765 97.0317C472.525 97.3004 474.071 97.8377 474.492 99.5842ZM644.479 98.2408C643.636 100.659 640.966 100.928 640.124 98.6438C639.421 97.3004 640.124 96.6287 642.09 96.6287C643.776 96.6287 644.76 97.3004 644.479 98.2408ZM182.003 101.599C180.598 102.943 179.334 100.928 180.598 99.1812C181.441 97.7034 181.722 97.7034 182.284 99.1812C182.565 100.122 182.425 101.196 182.003 101.599ZM304.365 100.256C304.646 101.062 303.944 102.002 302.679 102.405C301.275 103.077 300.572 102.405 300.572 100.525C300.572 97.7034 303.522 97.5691 304.365 100.256ZM317.43 100.659C317.43 102.405 316.728 103.077 315.323 102.54C313.075 101.599 312.654 100.256 314.199 98.9125C315.885 97.166 317.43 97.9721 317.43 100.659ZM651.784 100.659C651.784 102.405 650.8 103.346 648.974 103.346C645.743 103.346 645.322 102.002 647.85 99.5842C650.379 97.166 651.784 97.5691 651.784 100.659ZM313.356 104.286C319.819 107.914 318.554 110.063 309.844 110.063C300.713 110.063 299.167 108.585 304.225 104.824C308.72 101.465 308.299 101.465 313.356 104.286ZM658.808 104.555C660.915 108.317 660.494 108.988 657.403 107.107C654.453 105.361 653.61 102.002 655.998 102.002C656.701 102.002 657.965 103.211 658.808 104.555ZM474.492 106.301C474.914 108.317 473.93 108.72 467.327 108.72C463.253 108.72 459.32 108.317 458.898 107.779C456.791 105.898 461.006 103.883 467.327 103.883C472.525 104.018 474.071 104.555 474.492 106.301ZM219.091 106.033C219.091 106.704 218.529 107.376 217.686 107.376C216.984 107.376 216.281 106.704 216.281 106.033C216.281 105.227 216.984 104.689 217.686 104.689C218.529 104.689 219.091 105.227 219.091 106.033ZM296.358 107.376C296.358 109.123 295.374 110.063 293.548 110.063C291.722 110.063 290.738 109.123 290.738 107.376C290.738 105.63 291.722 104.689 293.548 104.689C295.374 104.689 296.358 105.63 296.358 107.376ZM486.012 107.376C486.012 109.123 485.028 110.063 483.202 110.063C481.376 110.063 480.392 109.123 480.392 107.376C480.392 105.63 481.376 104.689 483.202 104.689C485.028 104.689 486.012 105.63 486.012 107.376ZM566.088 106.033C566.088 106.704 565.526 107.376 564.683 107.376C563.981 107.376 563.278 106.704 563.278 106.033C563.278 105.227 563.981 104.689 564.683 104.689C565.526 104.689 566.088 105.227 566.088 106.033ZM647.991 105.63C649.255 106.839 646.164 110.197 644.619 109.257C642.652 108.182 643.074 104.689 645.181 104.689C646.305 104.689 647.569 105.092 647.991 105.63Z" fill="#673503" fill-opacity="0.91"/>
<path d="M354.519 83.8661C352.973 87.8965 350.866 88.7025 348.056 86.4187C345.668 84.2692 342.015 85.0752 343.561 87.3591C345.106 89.7773 341.313 92.7328 338.363 91.1207C335.553 89.7773 335.413 89.9116 335.132 95.2853C334.991 97.7035 334.148 98.7783 331.901 99.047C328.669 99.45 327.546 102.54 330.074 104.018C332.462 105.361 331.62 108.451 328.669 109.391C325.017 110.466 325.017 112.347 328.81 113.422C331.058 114.093 331.479 115.034 330.917 117.586C330.074 120.408 330.496 120.811 334.289 120.811C338.925 120.811 339.346 120.005 336.396 116.243C333.727 112.884 333.727 108.182 336.256 106.167C337.239 105.361 338.503 102.809 339.065 100.659C339.627 97.8379 341.032 96.0914 343.701 95.151C345.949 94.3449 348.759 93.1358 350.023 92.4641C353.395 90.852 362.386 90.9864 362.386 92.5985C362.386 93.2702 363.65 93.9419 365.195 93.9419C368.848 93.9419 375.31 99.853 374.186 102.406C373.765 103.48 374.467 105.092 375.732 106.033C378.401 108.182 378.401 114.631 375.732 116.78C373.063 118.795 373.905 119.87 378.682 120.408C381.773 120.811 382.054 120.542 381.211 117.586C380.649 115.034 381.07 114.093 383.318 113.422C387.111 112.347 387.111 110.466 383.458 109.391C380.087 108.317 379.946 106.436 382.896 103.077C385.425 100.525 385.706 100.793 378.541 98.6439C376.996 98.2409 376.715 96.8975 377.277 93.9419C378.261 89.7773 377.277 89.1055 373.625 91.255C371.096 92.7328 367.865 90.449 368.848 87.8965C369.972 85.0752 366.6 84.1348 363.931 86.4187C361.402 88.5682 361.121 88.4338 358.452 84.9409C355.783 81.448 355.502 81.3136 354.519 83.8661Z" fill="#673503" fill-opacity="0.91"/>
<path d="M710.085 89.7773C708.961 93.4045 704.044 94.3449 702.359 91.1207C700.111 87.0904 696.739 87.8965 696.739 92.4641C696.739 96.7631 693.368 98.9126 690.277 96.4944C689.153 95.6884 687.327 95.2853 686.203 95.8227C684.517 96.3601 684.236 97.1661 685.5 99.1813C687.608 103.077 685.781 106.033 681.286 106.033C676.369 106.033 674.964 107.779 677.774 110.063C681.005 112.616 680.443 118.124 677.071 118.124C675.526 118.124 674.262 118.661 674.262 119.467C674.262 120.139 677.774 120.811 681.988 120.811C688.872 120.811 689.715 120.542 690.558 117.586C690.979 115.706 692.244 113.959 693.368 113.556C694.492 113.153 695.334 111.944 695.334 111.004C695.334 109.929 696.318 108.317 697.582 107.242C700.813 104.689 702.64 108.048 701.937 114.899L701.375 120.542L710.226 120.273L719.076 120.139L719.919 115.168C721.465 106.57 725.679 105.764 728.208 113.69C728.77 115.437 729.894 116.78 730.596 116.78C731.299 116.78 732.001 117.855 732.001 119.064C732.141 120.408 732.703 119.333 733.265 116.78C734.249 112.078 734.811 112.347 736.918 119.064C737.48 121.214 741.694 121.348 741.694 119.198C741.694 118.392 743.099 116.243 744.785 114.496C747.314 111.944 747.595 111.004 746.049 110.197C745.066 109.526 743.099 109.391 741.694 109.66C738.463 110.466 736.496 105.361 739.025 102.54C741.554 99.7187 738.744 97.3005 735.092 99.1813C731.72 100.793 729.051 98.7783 729.051 94.4793C729.051 90.3146 726.663 89.2399 723.572 91.7924C719.919 94.8823 716.829 94.4793 715.845 90.5833C714.862 86.6874 711.35 86.15 710.085 89.7773ZM710.788 99.3156C710.788 99.9874 710.226 100.659 709.523 100.659C708.821 100.659 707.276 101.062 706.011 101.465C704.466 102.003 703.764 101.599 703.764 100.122C703.764 98.7783 705.028 97.9722 707.276 97.9722C709.242 97.9722 710.788 98.5096 710.788 99.3156ZM721.324 100.793C722.027 101.599 721.746 102.003 720.341 102.003C716.969 102.003 713.597 100.525 713.597 99.047C713.597 97.7035 719.076 98.9126 721.324 100.793ZM696.739 104.555C696.739 106.302 692.665 109.257 691.541 108.317C690.558 107.242 693.649 103.346 695.475 103.346C696.177 103.346 696.739 103.883 696.739 104.555ZM720.06 105.092C721.184 106.167 716.969 111.004 713.457 112.884C711.771 113.69 710.085 113.019 707.416 110.466C701.516 104.958 702.499 103.212 711.49 103.749C715.705 104.018 719.638 104.555 720.06 105.092ZM732.844 110.869C731.439 112.213 727.646 108.72 727.646 106.302C727.646 104.555 728.208 104.689 730.737 106.973C732.422 108.72 733.406 110.332 732.844 110.869ZM689.153 114.765C688.591 116.646 687.608 118.124 686.905 118.124C685.079 118.124 685.079 115.974 687.046 112.481C689.013 108.988 690.277 110.332 689.153 114.765Z" fill="#673503" fill-opacity="0.91"/>
<path d="M521.133 95.0165C521.133 97.7034 513.969 99.8529 511.019 98.1064C508.911 96.8973 508.49 97.0317 508.49 99.0468C508.49 102.271 503.573 106.57 500.904 105.63C499.358 105.092 499.077 105.898 499.639 110.063C500.342 114.362 499.92 115.437 497.251 116.78C493.036 118.93 495.565 120.407 503.713 120.542C509.473 120.676 510.035 120.407 511.861 116.243C514.25 110.869 515.655 109.929 521.133 109.794C526.05 109.66 530.686 113.019 531.248 117.318C531.67 119.87 532.653 120.139 540.099 120.407C546.842 120.542 548.106 120.273 546.28 119.064C543.049 116.78 541.644 111.675 543.611 109.391C545.016 107.779 544.875 107.376 542.628 107.376C539.256 107.376 534.62 102.808 535.603 100.39C536.025 99.0468 534.76 98.6438 530.827 98.6438C527.034 98.6438 524.786 97.7034 523.381 95.9569C522.117 94.3448 521.274 93.9418 521.133 95.0165ZM519.729 104.018C519.729 105.898 519.167 107.376 518.464 107.376C517.762 107.376 516.216 107.779 515.093 108.182C512.002 109.257 510.738 104.421 513.547 102.405C517.481 99.7185 519.729 100.39 519.729 104.018ZM532.372 105.495C532.372 107.913 530.546 108.72 527.034 107.779C524.224 107.107 522.819 103.48 524.786 101.599C526.05 100.39 532.372 103.614 532.372 105.495ZM509.192 110.063C510.738 112.481 508.349 116.78 505.54 116.78C502.589 116.78 502.168 115.168 504.275 111.272C505.961 108.451 507.787 107.913 509.192 110.063ZM540.099 116.78C538.554 119.064 535.322 118.258 533.637 115.168C532.232 112.75 532.513 111.944 534.62 110.466C536.868 108.854 537.43 109.123 539.115 112.078C540.099 113.959 540.52 116.108 540.099 116.78Z" fill="#673503" fill-opacity="0.91"/>
<rect x="-363" y="118" width="1207" height="754" rx="60" fill="#F5F5F5" stroke="#7E4205" stroke-width="8"/>
</svg>
