<svg width="948" height="883" viewBox="0 0 948 883" fill="none" xmlns="http://www.w3.org/2000/svg">
<path d="M448.481 2.69522C448.481 4.23406 447.614 5.7729 446.748 6.05269C445.737 6.33248 439.671 7.87133 433.317 9.55006C422.775 12.4879 421.764 12.4879 420.175 10.3894C418.587 8.29101 417.72 8.43091 410.788 11.9283C398.802 17.8039 394.903 20.8815 396.491 23.6794C398.224 26.897 379.45 45.2232 375.84 43.8243C374.251 43.2647 372.518 44.1041 370.785 46.2025C367.608 49.8398 364.72 48.7206 364.72 43.8243C364.72 40.3269 362.698 39.6274 359.087 41.7259C356.488 43.4046 351.722 41.1663 351.722 38.3684C351.722 35.0109 348.978 34.5912 344.357 37.2492C340.024 39.7673 339.88 39.7673 337.281 36.5498C334.103 32.7726 332.082 32.6327 330.06 36.27C328.182 39.6274 323.994 39.9072 321.395 36.9694C318.795 34.0317 317.496 34.3114 315.329 38.6482C313.308 42.5652 310.275 43.2647 305.22 41.1663C303.198 40.3269 302.621 40.8865 302.621 43.5445C302.621 48.161 300.021 50.2594 294.245 50.2594C289.768 50.2594 289.479 50.5392 290.201 54.0366C291.212 58.9329 289.912 61.0313 285.291 61.5909C282.836 62.0106 281.825 62.9899 282.114 64.6686C282.258 65.9277 282.547 68.166 282.836 69.425C282.98 71.1038 282.114 71.9431 280.236 71.9431C278.214 71.9431 276.626 69.9846 274.46 64.5287C270.849 55.4356 268.539 55.5755 264.784 65.2282C262.329 71.2437 261.318 72.5027 257.563 72.9224C253.953 73.482 252.508 72.6426 247.743 67.3266C244.566 63.9691 241.388 61.5909 240.522 62.1505C239.8 62.5702 239.078 66.3474 239.078 70.4043C239.078 76.9794 238.644 78.2384 235.179 80.3368C231.424 82.8549 231.135 82.715 223.625 78.9379C219.437 76.6996 215.538 75.3006 215.105 75.8602C214.527 76.4198 215.105 80.3368 216.549 84.6736C219.004 92.088 219.004 92.6476 216.404 95.4455C214.96 97.1242 213.805 98.663 213.661 98.9428C213.661 99.0827 210.05 98.663 205.862 97.8237C195.175 95.8652 194.02 97.5439 200.519 105.518C205.14 111.254 205.429 112.513 204.129 116.15C202.541 120.766 196.186 122.305 197.63 117.829C199.508 111.114 199.508 111.114 194.309 111.114C190.41 111.114 189.254 110.554 188.821 108.316C187.81 102.021 187.232 101.461 184.489 103.979C180.589 107.197 177.123 106.777 176.112 102.72C174.957 98.2434 172.069 98.2434 170.047 102.72C168.025 107.057 164.992 107.197 162.248 103.14C159.793 99.6423 156.183 100.901 157.194 104.958C158.205 108.735 154.739 110.974 150.984 109.015C146.94 106.917 144.341 109.015 146.363 112.653C148.385 116.57 146.94 118.808 142.175 118.808C136.831 118.808 136.542 122.445 141.741 124.683C144.919 126.082 145.785 125.943 148.529 122.725C150.262 120.766 152.861 118.808 154.306 118.388C155.605 117.829 156.761 116.57 156.761 115.59C156.761 110.694 175.535 109.155 184.489 113.212C188.243 114.891 191.132 121.886 188.388 122.725C187.666 123.005 187.088 123.844 187.088 124.544C187.088 125.383 191.276 125.803 196.764 125.523L206.44 125.103L209.761 116.709C211.639 112.093 215.971 104.679 219.726 100.202L226.225 92.088L231.857 98.1035C235.034 101.461 237.489 104.818 237.634 105.658C237.634 106.497 236.189 108.456 234.312 110.134C231.713 112.513 229.98 112.932 225.358 112.233L219.582 111.393L223.481 115.45C226.225 118.388 227.236 120.487 226.514 122.725C225.647 126.362 228.247 126.922 230.124 123.424C231.135 121.746 232.579 121.466 236.045 122.025L240.666 123.005L237.778 119.367C234.601 115.45 235.179 112.653 239.8 109.015C241.533 107.616 242.833 107.616 245.576 108.735C249.765 110.554 249.909 111.533 247.021 118.388C244.421 124.124 244.277 125.803 246.299 125.803C247.021 125.803 248.898 123.564 250.342 120.766L253.086 115.59L256.263 120.766C261.462 128.74 264.639 126.782 259.729 118.668C256.696 113.772 257.707 112.653 263.628 113.912C267.239 114.751 268.105 115.45 267.383 117.549C264.639 126.222 264.495 125.803 269.405 125.803C273.449 125.803 274.026 125.383 273.304 122.585C273.015 120.906 272.149 118.528 271.716 117.129C270.849 115.45 271.716 114.611 275.182 113.912C281.247 112.653 281.969 113.632 278.937 119.647C274.604 128.601 278.937 127.202 284.713 117.969C286.157 115.59 286.591 115.87 288.612 120.487C292.078 128.461 295.689 127.481 292.512 119.507C291.501 116.849 291.645 114.751 293.234 111.673C295.978 106.777 296.844 106.637 300.888 110.834C304.787 114.891 304.787 115.73 300.888 119.927L297.566 123.424L303.054 122.445C307.242 121.746 308.686 122.025 309.264 123.704C310.708 127.062 312.73 126.082 312.73 122.025C312.73 119.927 314.174 116.709 316.051 114.891L319.229 111.393L313.308 112.233C307.964 113.072 307.242 112.792 304.209 108.875L301.032 104.679L306.809 98.5232L312.585 92.5077L317.929 98.1035C322.406 103 329.049 114.891 332.082 123.424C332.659 125.383 334.681 125.803 343.057 125.803C348.545 125.803 353.166 125.243 353.166 124.544C353.166 123.704 349.267 122.445 344.646 121.466C336.847 120.067 335.836 119.507 335.114 115.87C334.103 111.533 335.548 108.176 340.024 104.259C341.757 102.72 343.057 100.342 343.057 98.9428C343.057 96.2848 341.324 96.1449 329.049 98.663C326.883 99.0827 325.005 98.1035 322.983 95.5854C320.384 92.3678 320.239 91.6683 322.261 86.3523C324.283 80.6166 324.861 75.4405 323.561 75.4405C323.128 75.4405 319.517 76.9794 315.618 78.9379C309.553 81.8757 307.964 82.1555 304.787 80.7565C302.765 79.9171 301.177 78.2384 301.032 76.9794C300.455 68.8655 299.588 62.2904 299.01 61.7308C298.577 61.3111 296.555 62.4303 294.533 64.3888C291.067 67.3266 290.923 67.4665 292.223 64.8085C294.822 60.0521 306.809 50.1196 313.885 47.0419C319.229 44.6637 323.417 43.9642 333.815 43.9642C345.368 43.9642 347.967 44.3839 355.91 48.0211C360.676 50.2594 364.72 52.9175 364.72 53.7568C364.72 54.7361 363.709 57.534 362.409 59.9122C360.243 63.9691 360.243 64.8085 362.12 66.6271C363.998 68.4458 363.998 69.7048 361.687 77.2591C360.387 82.0156 358.799 87.6114 358.365 89.7098C357.788 92.2279 356.488 93.6268 354.755 93.6268C352.733 93.6268 352.011 95.0258 351.289 100.202C349.989 110.834 351.578 120.207 354.61 120.207C356.055 120.207 357.499 121.466 357.932 123.145C358.943 126.782 362.553 125.943 362.553 122.165C362.553 118.248 368.186 118.668 368.763 122.585C369.485 127.481 373.385 126.642 373.385 121.606C373.385 117.409 373.385 117.409 381.905 117.409C390.137 117.409 390.57 117.549 391.003 121.186C391.292 123.145 392.303 125.103 393.314 125.523C394.758 125.943 395.047 124.823 394.18 120.766C388.981 95.1657 400.101 68.0261 421.619 52.7776C427.974 48.3009 429.707 47.8812 429.707 50.9589C429.707 52.218 428.407 53.0573 426.674 53.0573C424.219 53.0573 423.786 53.6169 424.652 57.1143C425.23 60.0521 424.941 61.3111 423.352 61.8707C420.464 62.9899 420.32 65.6479 423.208 65.6479C425.663 65.6479 426.096 69.1452 423.93 70.5442C421.619 71.9431 422.342 73.6219 425.519 74.4613C427.974 75.1607 428.407 76.0001 427.685 78.9379C426.818 82.0156 427.107 82.5751 429.274 82.1555C432.884 81.5959 435.483 83.5544 434.472 85.9326C433.606 88.4507 437.072 88.7305 439.383 86.4922C440.538 85.373 441.549 85.9326 443.282 88.1709C445.592 91.3885 445.592 91.3885 447.614 88.7305C449.492 86.3523 450.214 86.2124 452.669 87.6114C456.713 89.9896 457.146 89.8497 457.146 86.4922C457.146 84.2539 457.868 83.6943 461.045 84.114C464.367 84.5337 465.089 83.9741 465.089 81.0363C465.089 78.6581 465.955 77.5389 467.544 77.5389C470.576 77.5389 470.721 77.1193 469.277 73.482C468.555 71.6634 469.132 70.2644 471.01 68.8655C473.754 66.9069 473.754 66.9069 471.01 64.8085C468.699 63.2697 468.555 62.4303 469.854 61.1712C472.598 58.5132 471.876 55.8552 468.555 55.8552C466.1 55.8552 465.666 55.2957 466.533 51.7983C467.399 48.161 467.11 47.8812 463.789 48.4408C460.756 49.0004 460.034 48.5807 460.034 46.3424C460.034 42.9849 457.723 41.1663 456.424 43.2647C454.98 45.3631 451.369 44.9434 451.369 42.5652C451.369 40.8865 453.535 40.4668 461.911 40.4668C480.83 40.4668 497.582 47.1818 510.58 59.9122C525.599 74.741 531.809 91.1087 530.365 112.932C529.787 120.487 529.931 125.803 530.798 125.803C531.52 125.803 532.531 123.704 533.109 121.046C533.975 116.29 533.975 116.29 542.496 115.73L551.161 115.311L550.727 120.207C550.438 123.844 550.872 125.103 552.894 125.523C554.771 125.943 555.349 125.103 555.349 122.445C555.349 119.787 556.071 118.808 558.237 118.808C560.403 118.808 561.125 119.787 561.125 122.305C561.125 124.544 561.992 125.803 563.291 125.803C564.447 125.803 565.458 124.544 565.458 123.145C565.458 121.326 566.613 120.207 568.779 119.927C571.812 119.507 571.956 118.948 571.956 106.917C571.956 95.1657 571.812 94.3263 568.924 93.9066C566.613 93.6268 565.602 92.2279 565.024 88.4507C563.869 82.1555 565.024 80.7565 574.556 76.6996C585.676 71.9431 603.584 72.083 614.704 76.9794C622.791 80.6166 634.777 90.4093 634.777 93.347C634.777 94.3263 633.189 95.0258 631.167 95.0258C626.401 95.0258 626.69 96.9843 632.178 101.741C638.388 107.197 637.088 112.513 629.001 115.59C625.824 116.849 623.224 118.248 623.224 118.808C623.224 119.367 626.69 121.186 630.878 122.725C642.143 126.922 648.497 126.362 642.72 121.606C638.532 118.248 640.121 115.031 646.475 114.191C652.396 113.492 655.429 111.813 652.829 110.974C652.107 110.694 649.219 109.155 646.475 107.476C641.709 104.679 641.565 104.539 644.309 102.021C645.753 100.622 648.786 98.9428 650.808 98.5232C654.129 97.6838 654.996 98.2434 656.873 102.021C659.906 107.756 658.606 119.787 654.851 121.746C653.263 122.445 652.107 123.704 652.107 124.544C652.107 125.383 653.118 125.383 654.851 124.404C656.873 123.424 657.884 123.564 658.317 124.823C658.75 126.082 659.472 126.082 661.639 124.823C664.383 123.005 676.658 117.409 677.524 117.409C677.813 117.409 678.102 119.228 678.102 121.606C678.102 125.103 678.68 125.803 681.424 125.803C685.901 125.803 686.912 124.683 685.034 121.606C683.012 118.388 686.912 111.813 690.811 111.813C696.154 111.813 698.898 115.171 697.887 120.766C697.165 125.523 697.309 125.803 700.92 125.803C703.086 125.803 707.419 124.124 710.596 122.305C717.961 117.829 719.983 117.969 719.983 122.445C719.983 127.202 724.893 126.502 725.471 121.606C726.193 116.849 732.547 111.533 736.013 112.513C738.324 113.212 743.089 119.787 743.089 122.305C743.089 122.725 741.645 123.005 739.912 123.005C738.035 123.005 735.58 123.704 734.424 124.404C730.092 127.062 745.544 125.803 752.332 122.865C760.13 119.647 760.275 117.549 753.054 115.311C746.555 113.212 745.544 107.057 751.032 102.021C756.52 97.1242 755.654 95.0258 748.433 95.0258C743.089 95.0258 741.79 94.4662 740.49 91.5284C739.046 88.5906 739.19 86.9119 741.645 82.5751C743.089 79.6374 744.1 76.8395 743.667 76.4198C743.234 76.0001 740.201 76.5597 736.879 77.6788C731.392 79.6374 730.814 79.4975 728.07 76.8395C725.904 74.741 725.326 72.6426 725.615 67.7463C725.759 64.2489 725.471 61.451 725.037 61.451C724.46 61.451 722.149 62.9899 719.694 64.9484C717.383 66.9069 714.639 68.4458 713.628 68.4458C710.451 68.4458 707.13 64.9484 705.974 60.192C704.241 53.7568 702.508 53.477 698.609 59.3526C694.132 66.2075 688.356 66.2075 684.456 59.3526C680.846 52.9175 678.824 53.1972 677.236 60.3319C676.225 64.9484 675.069 66.3474 671.892 67.4665C668.715 68.4458 667.271 68.0261 663.516 65.0883C657.162 59.9122 656.151 60.4718 657.306 68.3059C658.028 74.3214 657.884 75.3006 654.996 77.2591C652.107 79.2177 651.096 79.2177 645.897 77.399C642.72 76.2799 639.832 75.7203 639.399 76.14C638.965 76.5597 639.832 79.3576 641.276 82.2954C642.72 85.373 643.442 88.8704 642.865 90.1295C641.42 93.7667 639.11 91.1087 639.11 85.6528C639.11 81.3161 638.821 80.7565 635.933 81.456C631.023 82.715 627.557 80.057 627.557 75.3006C627.557 71.6634 627.123 71.1038 625.101 71.9431C618.314 74.6011 617.303 74.4613 615.57 69.9846C613.981 65.6479 611.238 64.3888 609.505 67.0468C607.916 69.5649 601.995 68.4458 599.54 65.2282L597.374 62.1505L594.485 65.2282C591.308 69.0054 588.275 69.2851 585.676 66.3474C583.076 63.2697 580.621 63.8292 578.744 67.7463C577.011 71.5235 574.123 72.083 569.646 69.8447C567.48 68.5857 566.757 68.8655 566.035 70.824C563.436 78.9379 563.147 79.0778 561.27 73.6219C559.537 68.8655 559.681 68.0261 561.992 66.4872C564.447 64.6686 564.158 63.9691 558.237 53.8967C552.749 44.6637 551.305 43.1248 548.561 43.6844C544.373 44.3839 526.032 27.3167 527.187 23.6794C528.054 20.8815 522.277 16.1251 512.168 11.0889C506.247 8.15112 505.525 8.15112 503.937 10.3894C502.348 12.4879 501.481 12.4879 492.528 9.82985C487.184 8.15112 481.263 6.89206 479.53 6.89206C477.075 6.89206 475.92 5.9128 475.631 3.67448C475.198 0.736691 474.476 0.596797 461.911 0.177112C449.203 -0.242572 448.481 -0.102677 448.481 2.69522ZM460.034 12.348C460.034 13.7469 458.734 15.2858 457.146 15.7054C454.835 16.265 454.257 15.7054 454.257 13.0474C454.257 10.6692 455.124 9.68996 457.146 9.68996C459.023 9.68996 460.034 10.6692 460.034 12.348ZM470.143 12.4879C470.143 14.3065 469.132 15.2858 467.255 15.2858C465.377 15.2858 464.367 14.3065 464.367 12.4879C464.367 10.6692 465.377 9.68996 467.255 9.68996C469.132 9.68996 470.143 10.6692 470.143 12.4879ZM449.925 13.8868C449.925 17.1044 444.87 17.8039 443.715 14.7262C442.704 12.2081 443.86 11.0889 447.325 11.0889C448.914 11.0889 449.925 12.0682 449.925 13.8868ZM480.252 13.8868C480.252 15.7054 479.241 16.6847 477.364 16.6847C475.487 16.6847 474.476 15.7054 474.476 13.8868C474.476 12.0682 475.487 11.0889 477.364 11.0889C479.241 11.0889 480.252 12.0682 480.252 13.8868ZM439.383 14.7262C440.105 16.6847 437.794 19.3427 435.339 19.4826C433.606 19.4826 432.884 14.0267 434.617 13.3272C437.505 12.2081 438.516 12.4879 439.383 14.7262ZM489.639 15.9852C489.639 19.9023 485.451 19.4826 484.874 15.5655C484.44 12.9075 484.874 12.348 487.04 12.7676C488.484 13.0474 489.639 14.4464 489.639 15.9852ZM429.707 17.9438C429.707 19.4826 428.985 21.1613 428.118 21.7209C425.952 22.98 423.352 20.0422 424.363 17.5241C425.663 14.3065 429.707 14.7262 429.707 17.9438ZM498.738 16.4049C500.904 17.8039 499.46 22.2805 496.86 22.2805C494.261 22.2805 493.105 20.1821 494.116 17.5241C495.127 15.006 495.994 14.8661 498.738 16.4049ZM420.175 21.7209C421.186 24.3789 420.031 26.4773 417.431 26.4773C414.832 26.4773 413.388 22.0007 415.554 20.6018C418.298 19.0629 419.164 19.2028 420.175 21.7209ZM457.579 22.98C456.568 25.638 454.835 25.638 453.824 23.1199C453.391 22.0007 453.68 20.7416 454.691 20.4619C457.29 19.6225 458.59 20.7416 457.579 22.98ZM465.811 28.7157C465.811 36.6897 464.078 38.3684 460.612 33.7519C458.012 30.5343 458.157 27.0369 460.901 22.98C464.222 18.0836 465.811 19.9023 465.811 28.7157ZM508.702 21.7209C509.858 24.6587 506.825 27.5965 504.659 25.4981C502.781 23.6794 503.937 19.4826 506.247 19.4826C507.114 19.4826 508.125 20.4619 508.702 21.7209ZM450.791 23.2598C451.802 24.6587 452.813 26.897 452.813 28.296C452.813 32.4928 447.47 38.6482 443.137 39.3477C440.827 39.7673 438.083 40.4668 436.928 41.0264C435.339 41.586 433.606 39.9072 430.862 35.0109C428.551 31.2338 426.818 27.8763 426.818 27.4566C426.818 26.4773 442.127 21.7209 447.614 21.0214C448.336 21.0214 449.781 22.0007 450.791 23.2598ZM473.032 29.2752C473.032 35.8503 472.598 37.6689 470.865 37.6689C469.132 37.6689 468.699 35.8503 468.699 29.2752C468.699 22.7002 469.132 20.8815 470.865 20.8815C472.598 20.8815 473.032 22.7002 473.032 29.2752ZM485.307 23.1199C491.95 24.6587 504.803 30.3944 504.803 31.7933C504.803 32.4928 503.07 35.9902 501.048 39.6274L497.293 46.0626L492.817 43.6844C490.217 42.4253 485.596 40.6067 482.419 39.7673L476.642 38.0886L476.209 29.4151C475.775 21.581 476.064 20.7416 478.375 21.4411C479.819 21.8608 482.996 22.5603 485.307 23.1199ZM517.8 29.2752C516.067 32.4928 512.024 31.5135 512.024 28.0162C512.024 24.5188 513.468 23.5395 516.501 25.2183C518.667 26.3374 518.956 27.1768 517.8 29.2752ZM411.655 26.4773C412.232 27.3167 411.799 28.9954 410.788 30.1146C409.2 31.9332 408.766 31.9332 406.889 30.1146C405.734 28.9954 405.3 27.4566 405.734 26.6172C407.033 24.6587 410.499 24.6587 411.655 26.4773ZM428.118 36.1301C429.996 39.3477 431.151 42.4253 430.573 42.845C430.14 43.2647 427.829 42.845 425.374 41.8658C421.619 40.3269 421.042 39.4876 421.042 34.5912C421.042 27.5965 423.497 28.0162 428.118 36.1301ZM403.279 32.9125C403.712 34.0317 403.423 35.7104 402.412 36.6897C400.39 38.6482 395.625 34.5912 397.069 32.213C398.513 29.9747 402.268 30.3944 403.279 32.9125ZM525.743 32.0731C526.321 32.9125 525.888 34.4513 525.021 35.7104C522.855 38.2285 518.956 35.7104 520.256 32.6327C521.122 30.3944 524.444 29.9747 525.743 32.0731ZM418.153 34.871C418.153 38.0886 416.276 38.5083 413.965 35.7104C412.666 34.1715 412.666 33.612 414.11 33.0524C417.431 31.6534 418.153 32.0731 418.153 34.871ZM457.723 34.1715C458.157 35.4306 457.579 36.6897 456.279 37.2492C453.535 38.2285 452.524 37.2492 453.68 34.3114C454.835 31.5135 456.568 31.3737 457.723 34.1715ZM517.512 39.0679C525.166 44.8036 535.852 56.4148 535.852 58.793C535.852 59.6324 532.82 61.8707 529.209 63.8292L522.711 67.4665L515.634 60.192C511.735 56.135 506.825 51.7983 504.514 50.5392C502.348 49.2802 500.471 47.7413 500.471 47.0419C500.471 45.0833 507.836 33.4721 509.136 33.4721C509.858 33.4721 513.612 35.9902 517.512 39.0679ZM394.903 42.7051C392.881 44.6637 392.447 44.6637 390.714 42.7051C389.27 40.8865 389.27 40.0471 390.714 38.2285C392.447 36.27 392.881 36.27 394.903 38.2285C396.924 40.3269 396.924 40.6067 394.903 42.7051ZM416.998 46.6222C416.276 54.4563 404.578 65.6479 397.358 65.6479C393.17 65.6479 391.87 64.9484 390.137 61.5909C387.971 57.6739 388.115 57.2542 392.159 52.3579C394.469 49.56 399.091 44.8036 402.557 41.8658L408.766 36.5498L413.099 38.928C416.854 41.0264 417.287 42.0057 416.998 46.6222ZM533.253 38.5083C534.408 41.4461 531.376 44.3839 529.209 42.2854C527.332 40.4668 528.487 36.27 530.798 36.27C531.664 36.27 532.675 37.2492 533.253 38.5083ZM445.592 43.2647C445.592 43.9642 445.015 44.6637 444.148 44.6637C443.426 44.6637 442.704 43.9642 442.704 43.2647C442.704 42.4253 443.426 41.8658 444.148 41.8658C445.015 41.8658 445.592 42.4253 445.592 43.2647ZM423.352 47.1818C420.753 49.6999 418.876 48.5807 420.031 45.503C420.609 44.1041 421.908 43.6844 423.208 44.244C425.374 44.9434 425.374 45.2232 423.352 47.1818ZM388.693 46.7621C390.137 50.1196 387.971 51.7983 384.793 50.1196C382.483 49.0004 382.194 48.3009 383.638 46.6222C385.804 44.1041 387.682 44.1041 388.693 46.7621ZM436.928 46.0626C436.928 46.7621 436.35 47.4616 435.483 47.4616C434.761 47.4616 434.039 46.7621 434.039 46.0626C434.039 45.2232 434.761 44.6637 435.483 44.6637C436.35 44.6637 436.928 45.2232 436.928 46.0626ZM540.185 46.0626C540.763 46.902 540.329 48.5807 539.318 49.6999C537.73 51.5185 537.297 51.5185 535.419 49.6999C534.264 48.5807 533.831 47.0419 534.264 46.2025C535.564 44.244 539.03 44.244 540.185 46.0626ZM447.037 53.3371C447.037 59.3526 442.127 64.2489 435.917 64.2489C431.873 64.2489 431.151 63.6894 431.151 61.0313C431.151 56.4148 433.75 54.1765 437.216 55.9951C439.816 57.2542 439.96 57.1143 439.094 54.4563C437.938 51.0988 440.105 48.8605 444.582 48.8605C446.459 48.8605 447.037 49.9797 447.037 53.3371ZM453.247 52.3579C452.524 54.1765 449.925 55.4356 449.925 53.8967C449.925 51.7983 451.947 49.0004 452.958 49.56C453.535 49.9797 453.824 51.2387 453.247 52.3579ZM382.483 57.3941C381.472 58.3733 379.739 58.6531 378.439 58.0936C376.562 57.3941 376.417 56.6946 377.861 54.3164C379.306 51.5185 379.594 51.5185 381.761 53.6169C383.494 55.2957 383.638 56.2749 382.483 57.3941ZM545.962 55.2957C545.962 56.6946 544.806 58.0936 543.506 58.3733C540.907 58.793 539.752 54.5962 541.918 52.4978C543.651 50.9589 545.962 52.4978 545.962 55.2957ZM460.323 55.4356C463.067 57.8138 463.789 61.451 461.478 61.451C460.756 61.451 460.034 62.0106 460.034 62.85C460.034 63.5495 461.045 64.2489 462.2 64.2489C464.655 64.2489 465.089 68.0261 462.922 71.2437C461.767 73.0623 461.045 73.0623 457.579 70.9639C452.524 68.0261 451.08 62.1505 454.113 56.8345C456.713 52.3579 456.857 52.3579 460.323 55.4356ZM378.295 64.9484C377.284 67.1867 371.94 67.8862 371.94 65.7878C371.94 61.8707 373.818 60.192 376.417 61.451C377.861 62.2904 378.728 63.8292 378.295 64.9484ZM551.738 65.6479C550.583 67.6064 547.117 67.4665 545.817 65.3681C545.239 64.5287 545.962 62.9899 547.55 61.8707C549.716 60.3319 550.294 60.3319 551.449 62.1505C552.027 63.2697 552.171 64.9484 551.738 65.6479ZM387.826 63.4096C387.826 65.6479 385.227 67.7463 383.927 66.4872C382.772 65.3681 384.649 61.451 386.382 61.451C387.104 61.451 387.826 62.2904 387.826 63.4096ZM449.925 65.7878C449.925 67.4665 448.914 68.4458 447.037 68.4458C443.86 68.4458 442.849 63.5495 446.026 62.4303C448.625 61.5909 449.925 62.7101 449.925 65.7878ZM539.463 64.5287C539.463 65.508 536.286 68.0261 532.386 70.1245C526.61 73.3421 525.166 73.6219 524.444 71.9431C524.01 70.6841 525.743 68.7256 529.787 66.3474C536.43 62.5702 539.463 62.0106 539.463 64.5287ZM434.328 68.7256C433.028 69.9846 432.162 69.9846 430.862 68.7256C429.562 67.4665 429.851 67.0468 432.595 67.0468C435.339 67.0468 435.628 67.4665 434.328 68.7256ZM393.025 72.9224C395.047 76.8395 395.047 77.9586 392.736 86.4922C389.27 99.5024 382.483 104.958 375.695 99.9221C372.518 97.5439 372.951 90.5492 377.139 78.798C380.172 69.9846 381.183 68.8655 386.382 68.7256C389.848 68.7256 391.148 69.5649 393.025 72.9224ZM399.091 70.824C398.513 73.9017 395.913 73.6219 395.336 70.6841C395.047 69.2851 395.769 68.4458 397.213 68.4458C398.657 68.4458 399.379 69.425 399.091 70.824ZM447.181 71.2437C448.481 71.2437 450.358 73.2022 451.369 75.5804C452.958 79.2177 452.958 80.057 451.225 81.1762C447.614 83.4145 444.148 82.5751 444.148 79.6374C444.148 78.0985 443.571 76.8395 442.704 76.8395C441.982 76.8395 441.26 77.399 441.26 78.2384C441.26 80.6166 437.505 79.7773 434.761 76.8395C431.873 73.6219 431.729 73.7618 437.65 70.824C440.249 69.425 442.56 69.1452 443.426 69.9846C444.148 70.6841 445.881 71.2437 447.181 71.2437ZM546.25 77.8187C547.983 82.4353 549.716 89.0103 550.294 92.5077L551.305 98.8029L542.929 98.663L534.553 98.5232L532.098 90.1295C530.653 85.5129 529.209 80.3368 528.632 78.798C527.765 76.2799 528.776 75.1607 533.975 72.2229C537.297 70.2644 540.907 68.8655 541.629 69.0054C542.496 69.2851 544.517 73.2022 546.25 77.8187ZM373.096 70.9639C374.829 72.083 374.107 76.8395 372.085 76.8395C369.63 76.6996 367.319 74.0416 368.041 72.083C369.052 69.5649 370.352 69.2851 373.096 70.9639ZM555.349 70.4043C555.349 70.6841 555.782 71.9431 556.215 73.0623C557.082 75.3006 551.594 77.399 550.15 75.3006C548.85 73.2022 550.727 69.8447 553.182 69.8447C554.338 69.8447 555.349 70.1245 555.349 70.4043ZM688.789 74.1815C691.533 76.6996 691.533 76.8395 689.078 81.456C683.59 91.1087 663.661 92.9274 663.661 83.6943C663.661 81.5959 664.816 78.5182 666.26 76.8395L668.86 73.7618L672.759 78.798C675.069 81.5959 677.38 83.8342 678.247 83.8342C678.969 83.8342 679.546 80.6166 679.546 76.6996C679.546 69.9846 679.691 69.7048 682.868 70.5442C684.601 71.1038 687.345 72.6426 688.789 74.1815ZM694.132 71.3836C695.721 72.083 696.587 73.3421 696.154 74.1815C694.854 76.14 693.41 75.7203 691.388 72.6426C689.367 69.425 689.944 69.1452 694.132 71.3836ZM701.931 71.2437C701.498 71.9431 700.487 72.6426 699.62 72.6426C698.898 72.6426 698.32 71.9431 698.32 71.2437C698.32 70.4043 699.331 69.8447 700.631 69.8447C701.786 69.8447 702.364 70.4043 701.931 71.2437ZM676.658 74.8809C676.658 76.0001 676.08 76.5597 675.214 76.14C674.492 75.7203 673.77 74.741 673.77 73.9017C673.77 73.2022 674.492 72.6426 675.214 72.6426C676.08 72.6426 676.658 73.6219 676.658 74.8809ZM709.874 73.9017C709.874 75.5804 704.241 77.399 702.942 76.14C701.931 75.1607 705.397 72.6426 708.141 72.6426C709.007 72.6426 709.874 73.2022 709.874 73.9017ZM458.59 76.9794C458.59 77.6788 458.012 78.2384 457.146 78.2384C456.424 78.2384 455.702 77.2591 455.702 76.0001C455.702 74.8809 456.424 74.3214 457.146 74.741C458.012 75.1607 458.59 76.14 458.59 76.9794ZM701.209 78.798C701.209 79.9171 700.342 81.456 699.187 82.2954C697.598 83.5544 697.021 83.2746 696.443 81.1762C695.721 78.2384 698.032 75.0208 700.053 76.2799C700.631 76.6996 701.209 77.8187 701.209 78.798ZM282.836 78.0985C285.868 78.798 288.612 79.6374 288.901 79.9171C289.19 80.1969 288.324 83.9741 287.024 88.4507C285.291 93.9066 283.991 96.2848 282.691 95.7253C281.536 95.3056 279.225 95.0258 277.348 95.0258C274.604 95.0258 273.449 93.9066 272.149 89.43C270.272 83.2746 268.683 83.2746 267.239 89.43C266.372 93.4869 265.073 94.1864 257.419 95.3056C255.252 95.5854 254.097 94.0465 252.075 87.6114L249.476 79.6374L253.375 78.798C255.397 78.3783 257.852 77.8187 258.574 77.5389C261.607 76.5597 277.637 76.9794 282.836 78.0985ZM719.983 78.0985C719.983 78.798 718.972 81.5959 717.672 84.5337C716.517 87.3316 715.795 89.9896 716.228 90.4093C716.661 90.8289 719.261 89.8497 722.149 88.1709C725.037 86.6321 727.926 85.2331 728.503 85.2331C730.236 85.2331 731.103 90.8289 730.092 95.0258C728.07 103 709.874 95.4455 706.985 85.373C706.119 82.0156 706.119 79.9171 707.274 78.6581C709.007 76.6996 719.983 76.14 719.983 78.0985ZM370.496 82.4353C370.496 84.2539 369.485 85.2331 367.608 85.2331C365.731 85.2331 364.72 84.2539 364.72 82.4353C364.72 80.6166 365.731 79.6374 367.608 79.6374C369.485 79.6374 370.496 80.6166 370.496 82.4353ZM559.392 82.8549C559.681 84.3938 558.959 85.2331 556.937 85.2331C553.616 85.2331 551.883 83.1347 553.182 80.8964C554.627 78.798 558.815 80.057 559.392 82.8549ZM660.195 87.7513C658.462 89.43 657.595 86.6321 658.75 82.8549L659.906 78.9379L660.483 82.8549C660.772 85.0933 660.628 87.1917 660.195 87.7513ZM694.421 85.373C691.966 87.7513 689.078 85.5129 691.244 82.9948C692.399 81.5959 693.41 81.3161 694.566 82.4353C695.576 83.4145 695.576 84.2539 694.421 85.373ZM724.315 82.2954C724.315 83.1347 723.738 84.114 722.871 84.5337C722.149 84.9534 721.427 84.3938 721.427 83.2746C721.427 82.0156 722.149 81.0363 722.871 81.0363C723.738 81.0363 724.315 81.5959 724.315 82.2954ZM247.598 86.3523C250.775 93.7667 250.198 97.6838 245.865 100.342L241.822 102.72L236.045 96.7045C232.868 93.4869 230.702 90.1295 231.135 89.43C232.29 87.7513 241.966 82.5751 244.277 82.4353C245.143 82.4353 246.732 84.2539 247.598 86.3523ZM303.054 85.9326C305.942 87.8912 308.397 89.9896 308.397 90.5491C308.253 91.8082 302.621 98.1035 299.588 100.342C297.711 101.741 296.411 101.741 293.378 100.482C289.19 98.5232 288.468 94.3263 291.212 86.772C293.089 81.456 295.833 81.3161 303.054 85.9326ZM704.964 87.6114C704.53 88.031 703.086 88.031 701.786 87.4715C699.909 86.772 699.765 86.2124 701.353 84.3938C702.942 82.4353 703.231 82.4353 704.53 84.5337C705.252 85.7927 705.397 87.1917 704.964 87.6114ZM654.274 87.8912C653.84 88.7305 652.685 89.43 651.818 89.43C650.952 89.43 650.952 88.5906 652.107 87.3316C654.129 84.9534 655.862 85.5129 654.274 87.8912ZM369.052 92.2279C369.052 94.0465 368.041 95.0258 366.453 95.0258C362.987 95.0258 361.831 93.9066 362.842 91.3885C363.998 88.3108 369.052 89.0103 369.052 92.2279ZM561.125 92.2279C561.125 94.0465 560.114 95.0258 558.237 95.0258C556.36 95.0258 555.349 94.0465 555.349 92.2279C555.349 90.4093 556.36 89.43 558.237 89.43C560.114 89.43 561.125 90.4093 561.125 92.2279ZM662.361 93.4869C663.516 96.2848 663.227 96.5646 660.339 95.5854C656.151 94.3263 655.862 94.1864 657.017 91.5284C658.173 88.4507 660.917 89.43 662.361 93.4869ZM669.87 91.8082C671.17 93.0673 667.993 96.5646 666.404 95.5854C664.383 94.4662 664.816 90.8289 666.982 90.8289C668.137 90.8289 669.437 91.2486 669.87 91.8082ZM693.699 94.6061C693.988 96.4247 694.566 97.8237 694.999 97.8237C695.288 97.8237 696.876 96.4247 698.32 94.6061C701.064 91.5284 701.064 91.5284 700.775 100.202C700.487 109.295 699.909 110.274 696.587 107.057C695.432 106.077 692.255 104.399 689.222 103.419C686.334 102.3 682.146 100.062 679.98 98.3833L675.936 95.1657L680.99 93.0673C687.922 89.9896 693.121 90.689 693.699 94.6061ZM653.551 93.4869C653.551 94.8859 650.085 96.4247 647.342 96.4247C646.331 96.4247 646.908 95.4455 648.352 94.3263C651.53 91.9481 653.551 91.6683 653.551 93.4869ZM735.869 98.1035C735.869 99.5024 734.858 100.622 733.558 100.622C731.969 100.622 731.536 99.9221 732.114 98.3833C732.547 97.1242 732.98 95.1657 732.98 93.9066C732.98 91.8082 733.269 91.8082 734.424 93.6268C735.146 94.746 735.869 96.8444 735.869 98.1035ZM710.451 97.9636C716.372 102.58 717.817 105.938 714.784 109.155C712.473 111.673 712.473 111.813 715.361 111.813C720.127 111.813 720.56 114.471 716.084 116.01C713.917 116.849 710.307 118.388 708.285 119.507L704.675 121.466L704.386 108.176C704.241 101.041 704.675 95.0258 705.397 95.0258C705.974 95.0258 708.285 96.2848 710.451 97.9636ZM267.961 102.3L269.838 106.917L271.282 102.3C272.727 97.8237 273.015 97.6838 277.926 98.5232C284.713 99.7822 285.724 101.601 281.969 106.497C279.37 109.855 278.07 110.414 271.427 110.414C267.383 110.414 261.895 109.995 259.44 109.575C255.541 108.735 254.963 108.036 254.963 103.979C254.963 100.342 255.686 99.3625 258.285 98.8029C265.217 97.5439 266.228 97.8237 267.961 102.3ZM662.794 98.9428C663.083 99.5024 662.794 100.901 662.072 102.021C660.917 103.839 660.628 103.839 659.328 102.021C658.606 100.901 657.884 99.5024 657.884 98.8029C657.884 97.404 661.928 97.5439 662.794 98.9428ZM679.257 101.601C682.146 103.699 685.179 105.798 685.901 106.357C686.623 106.917 684.89 108.456 682.29 109.575C679.546 110.834 675.214 113.352 672.47 115.311C669.726 117.269 666.26 118.808 664.671 118.808C662.361 118.808 662.072 118.108 662.794 114.891C665.249 105.238 666.549 103.559 671.459 104.399C675.069 105.098 675.647 104.818 674.203 103.28C672.326 101.461 671.603 97.8237 673.192 97.8237C673.625 97.8237 676.369 99.5024 679.257 101.601ZM367.608 102.021C367.608 103.839 366.597 104.818 364.72 104.818C362.842 104.818 361.831 103.839 361.831 102.021C361.831 100.202 362.842 99.2226 364.72 99.2226C366.597 99.2226 367.608 100.202 367.608 102.021ZM562.569 102.021C562.569 103.839 561.558 104.818 559.681 104.818C557.804 104.818 556.793 103.839 556.793 102.021C556.793 100.202 557.804 99.2226 559.681 99.2226C561.558 99.2226 562.569 100.202 562.569 102.021ZM740.201 102.86C740.201 103.979 739.623 104.539 738.757 104.119C738.035 103.699 737.313 102.3 737.313 101.181C737.313 100.062 738.035 99.5024 738.757 99.9221C739.623 100.342 740.201 101.741 740.201 102.86ZM550.727 103.699C551.161 105.798 550.15 106.217 543.362 106.217C534.986 106.217 533.542 105.658 534.553 102.72C535.13 101.461 537.874 100.901 542.784 101.041C548.705 101.321 550.294 101.881 550.727 103.699ZM725.471 102.3C724.604 104.818 721.86 105.098 720.994 102.72C720.272 101.321 720.994 100.622 723.015 100.622C724.748 100.622 725.759 101.321 725.471 102.3ZM250.053 105.798C248.609 107.197 247.309 105.098 248.609 103.28C249.476 101.741 249.765 101.741 250.342 103.28C250.631 104.259 250.487 105.378 250.053 105.798ZM375.84 104.399C376.128 105.238 375.406 106.217 374.107 106.637C372.662 107.337 371.94 106.637 371.94 104.679C371.94 101.741 374.973 101.601 375.84 104.399ZM389.27 104.818C389.27 106.637 388.548 107.337 387.104 106.777C384.793 105.798 384.36 104.399 385.949 103C387.682 101.181 389.27 102.021 389.27 104.818ZM732.98 104.818C732.98 106.637 731.969 107.616 730.092 107.616C726.77 107.616 726.337 106.217 728.937 103.699C731.536 101.181 732.98 101.601 732.98 104.818ZM385.082 108.596C391.725 112.373 390.426 114.611 381.472 114.611C372.085 114.611 370.496 113.072 375.695 109.155C380.317 105.658 379.883 105.658 385.082 108.596ZM740.201 108.875C742.367 112.792 741.934 113.492 738.757 111.533C735.724 109.715 734.858 106.217 737.313 106.217C738.035 106.217 739.335 107.476 740.201 108.875ZM550.727 110.694C551.161 112.792 550.15 113.212 543.362 113.212C539.174 113.212 535.13 112.792 534.697 112.233C532.531 110.274 536.863 108.176 543.362 108.176C548.705 108.316 550.294 108.875 550.727 110.694ZM288.179 110.414C288.179 111.114 287.601 111.813 286.735 111.813C286.013 111.813 285.291 111.114 285.291 110.414C285.291 109.575 286.013 109.015 286.735 109.015C287.601 109.015 288.179 109.575 288.179 110.414ZM367.608 111.813C367.608 113.632 366.597 114.611 364.72 114.611C362.842 114.611 361.831 113.632 361.831 111.813C361.831 109.995 362.842 109.015 364.72 109.015C366.597 109.015 367.608 109.995 367.608 111.813ZM562.569 111.813C562.569 113.632 561.558 114.611 559.681 114.611C557.804 114.611 556.793 113.632 556.793 111.813C556.793 109.995 557.804 109.015 559.681 109.015C561.558 109.015 562.569 109.995 562.569 111.813ZM644.886 110.414C644.886 111.114 644.309 111.813 643.442 111.813C642.72 111.813 641.998 111.114 641.998 110.414C641.998 109.575 642.72 109.015 643.442 109.015C644.309 109.015 644.886 109.575 644.886 110.414ZM729.081 109.995C730.381 111.254 727.204 114.751 725.615 113.772C723.593 112.653 724.026 109.015 726.193 109.015C727.348 109.015 728.648 109.435 729.081 109.995Z" fill="#673503" fill-opacity="0.91"/>
<path d="M427.396 87.3317C425.808 91.5285 423.641 92.3679 420.753 89.9897C418.298 87.7513 414.543 88.5907 416.132 90.9689C417.72 93.487 413.821 96.5647 410.788 94.886C407.9 93.487 407.756 93.6269 407.467 99.2227C407.322 101.741 406.456 102.86 404.145 103.14C400.824 103.559 399.668 106.777 402.268 108.316C404.723 109.715 403.856 112.932 400.824 113.912C397.069 115.031 397.069 116.989 400.968 118.109C403.279 118.808 403.712 119.787 403.134 122.445C402.268 125.383 402.701 125.803 406.6 125.803C411.366 125.803 411.799 124.963 408.767 121.046C406.023 117.549 406.023 112.653 408.622 110.554C409.633 109.715 410.933 107.057 411.51 104.819C412.088 101.881 413.532 100.062 416.276 99.0828C418.587 98.2435 421.475 96.9844 422.775 96.2849C426.241 94.6062 435.484 94.7461 435.484 96.4248C435.484 97.1243 436.783 97.8238 438.372 97.8238C442.127 97.8238 448.77 103.979 447.614 106.637C447.181 107.756 447.903 109.435 449.203 110.414C451.947 112.653 451.947 119.368 449.203 121.606C446.459 123.704 447.326 124.823 452.236 125.383C455.413 125.803 455.702 125.523 454.835 122.445C454.258 119.787 454.691 118.808 457.002 118.109C460.901 116.989 460.901 115.031 457.146 113.912C453.68 112.793 453.536 110.834 456.568 107.337C459.168 104.679 459.457 104.958 452.091 102.72C450.503 102.3 450.214 100.901 450.792 97.8238C451.803 93.487 450.792 92.7876 447.037 95.0259C444.437 96.5647 441.116 94.1865 442.127 91.5285C443.282 88.5907 439.816 87.6115 437.072 89.9897C434.473 92.228 434.184 92.0881 431.44 88.4508C428.696 84.8136 428.407 84.6737 427.396 87.3317Z" fill="#673503" fill-opacity="0.91"/>
<path d="M792.913 93.487C791.758 97.2642 786.703 98.2435 784.97 94.886C782.659 90.6891 779.193 91.5285 779.193 96.2849C779.193 100.762 775.727 103 772.55 100.482C771.395 99.6424 769.518 99.2227 768.362 99.7823C766.629 100.342 766.34 101.181 767.64 103.28C769.806 107.337 767.929 110.414 763.308 110.414C758.253 110.414 756.809 112.233 759.697 114.611C763.019 117.269 762.441 123.005 758.975 123.005C757.387 123.005 756.087 123.564 756.087 124.404C756.087 125.103 759.697 125.803 764.03 125.803C771.106 125.803 771.973 125.523 772.839 122.445C773.272 120.487 774.572 118.668 775.727 118.248C776.883 117.829 777.749 116.57 777.749 115.59C777.749 114.471 778.76 112.793 780.06 111.673C783.382 109.015 785.259 112.513 784.537 119.647L783.959 125.523L793.057 125.243L802.156 125.103L803.022 119.927C804.611 110.974 808.943 110.135 811.543 118.388C812.12 120.207 813.276 121.606 813.998 121.606C814.72 121.606 815.442 122.725 815.442 123.984C815.586 125.383 816.164 124.264 816.742 121.606C817.753 116.71 818.33 116.989 820.496 123.984C821.074 126.222 825.407 126.362 825.407 124.124C825.407 123.285 826.851 121.046 828.584 119.228C831.183 116.57 831.472 115.59 829.883 114.751C828.873 114.052 826.851 113.912 825.407 114.191C822.085 115.031 820.063 109.715 822.663 106.777C825.262 103.839 822.374 101.321 818.619 103.28C815.153 104.958 812.409 102.86 812.409 98.3834C812.409 94.0466 809.954 92.9275 806.777 95.5855C803.022 98.803 799.845 98.3834 798.834 94.3264C797.823 90.2695 794.213 89.7099 792.913 93.487ZM793.635 103.42C793.635 104.119 793.057 104.819 792.335 104.819C791.613 104.819 790.025 105.238 788.725 105.658C787.136 106.217 786.414 105.798 786.414 104.259C786.414 102.86 787.714 102.021 790.025 102.021C792.046 102.021 793.635 102.58 793.635 103.42ZM804.466 104.958C805.188 105.798 804.9 106.217 803.455 106.217C799.989 106.217 796.523 104.679 796.523 103.14C796.523 101.741 802.156 103 804.466 104.958ZM779.193 108.875C779.193 110.694 775.005 113.772 773.85 112.793C772.839 111.673 776.016 107.616 777.894 107.616C778.616 107.616 779.193 108.176 779.193 108.875ZM803.167 109.435C804.322 110.554 799.989 115.59 796.379 117.549C794.646 118.388 792.913 117.689 790.169 115.031C784.104 109.295 785.115 107.477 794.357 108.036C798.69 108.316 802.733 108.875 803.167 109.435ZM816.308 115.451C814.864 116.849 810.965 113.212 810.965 110.694C810.965 108.875 811.543 109.015 814.142 111.394C815.875 113.212 816.886 114.891 816.308 115.451ZM771.395 119.507C770.817 121.466 769.806 123.005 769.084 123.005C767.207 123.005 767.207 120.767 769.229 117.129C771.251 113.492 772.55 114.891 771.395 119.507Z" fill="#673503" fill-opacity="0.91"/>
<path d="M598.674 98.943C598.674 101.741 591.309 103.979 588.276 102.161C586.11 100.901 585.676 101.041 585.676 103.14C585.676 106.497 580.622 110.974 577.878 109.995C576.289 109.435 576.001 110.274 576.578 114.611C577.3 119.088 576.867 120.207 574.123 121.606C569.791 123.844 572.39 125.383 580.766 125.523C586.687 125.663 587.265 125.383 589.142 121.046C591.598 115.451 593.042 114.471 598.674 114.331C603.728 114.191 608.494 117.689 609.072 122.165C609.505 124.823 610.516 125.103 618.17 125.383C625.102 125.523 626.402 125.243 624.524 123.984C621.203 121.606 619.759 116.29 621.78 113.912C623.225 112.233 623.08 111.813 620.77 111.813C617.304 111.813 612.538 107.057 613.549 104.539C613.982 103.14 612.682 102.72 608.639 102.72C604.739 102.72 602.429 101.741 600.985 99.9222C599.685 98.2435 598.818 97.8238 598.674 98.943ZM597.23 108.316C597.23 110.274 596.652 111.813 595.93 111.813C595.208 111.813 593.619 112.233 592.464 112.653C589.287 113.772 587.987 108.736 590.875 106.637C594.919 103.839 597.23 104.539 597.23 108.316ZM610.227 109.855C610.227 112.373 608.35 113.212 604.739 112.233C601.851 111.533 600.407 107.756 602.429 105.798C603.728 104.539 610.227 107.896 610.227 109.855ZM586.399 114.611C587.987 117.129 585.532 121.606 582.644 121.606C579.611 121.606 579.178 119.927 581.344 115.87C583.077 112.932 584.954 112.373 586.399 114.611ZM618.17 121.606C616.582 123.984 613.26 123.145 611.527 119.927C610.083 117.409 610.372 116.57 612.538 115.031C614.849 113.352 615.426 113.632 617.159 116.71C618.17 118.668 618.603 120.906 618.17 121.606Z" fill="#673503" fill-opacity="0.91"/>
<rect x="4" y="125" width="1241" height="754" rx="60" fill="#F5F5F5" stroke="#7E4205" stroke-width="8"/>
</svg>
