<svg width="70" height="71" viewBox="0 0 70 71" fill="none" xmlns="http://www.w3.org/2000/svg">
<ellipse cx="35" cy="35.1898" rx="35" ry="35.1898" fill="white"/>
<path d="M43.75 15.8765H26.25C21.4175 15.8765 17.5 19.8144 17.5 24.6722V42.2636C17.5 47.1213 21.4175 51.0593 26.25 51.0593H43.75C48.5825 51.0593 52.5 47.1213 52.5 42.2636V24.6722C52.5 19.8144 48.5825 15.8765 43.75 15.8765Z" stroke="#383638" stroke-width="2" stroke-linecap="round" stroke-linejoin="round"/>
<path d="M42 32.3599C42.2159 33.8239 41.9672 35.3191 41.2891 36.6329C40.6109 37.9466 39.538 39.0119 38.2228 39.6773C36.9077 40.3427 35.4173 40.5744 33.9636 40.3392C32.5099 40.1041 31.1671 39.4142 30.1259 38.3676C29.0848 37.3211 28.3985 35.9712 28.1646 34.5099C27.9307 33.0487 28.1611 31.5505 28.823 30.2285C29.485 28.9064 30.5448 27.8279 31.8517 27.1462C33.1586 26.4646 34.646 26.2145 36.1025 26.4316C37.5881 26.653 38.9635 27.3489 40.0254 28.4164C41.0874 29.484 41.7797 30.8665 42 32.3599Z" stroke="#383638" stroke-width="2" stroke-linecap="round" stroke-linejoin="round"/>
<path d="M44.625 23.793H44.6425" stroke="#383638" stroke-width="2" stroke-linecap="round" stroke-linejoin="round"/>
</svg>
