<svg width="58" height="59" viewBox="0 0 58 59" fill="none" xmlns="http://www.w3.org/2000/svg">
<ellipse cx="29.001" cy="29.4835" rx="29.001" ry="29.4835" fill="white"/>
<g clip-path="url(#clip0_122_107)">
<path d="M45.3513 14.4216C43.9627 15.4171 42.4252 16.1786 40.7981 16.6766C39.9248 15.656 38.7642 14.9325 37.4732 14.6042C36.1822 14.2759 34.8232 14.3585 33.5799 14.8408C32.3366 15.3231 31.269 16.182 30.5216 17.3011C29.7742 18.4202 29.3829 19.7457 29.4007 21.0982V22.5721C26.8525 22.6393 24.3274 22.0648 22.0504 20.8999C19.7735 19.735 17.8153 18.0158 16.3503 15.8954C16.3503 15.8954 10.5501 29.1604 23.6005 35.0559C20.6142 37.1163 17.0567 38.1495 13.4502 38.0037C26.5006 45.3731 42.4512 38.0037 42.4512 21.054C42.4498 20.6435 42.411 20.234 42.3352 19.8307C43.8151 18.3472 44.8595 16.4743 45.3513 14.4216V14.4216Z" stroke="#383638" stroke-width="2" stroke-linecap="round" stroke-linejoin="round"/>
</g>
<defs>
<clipPath id="clip0_122_107">
<rect width="34.8012" height="35.3732" fill="white" transform="translate(12 10)"/>
</clipPath>
</defs>
</svg>
