<svg width="175" height="175" viewBox="0 0 175 175" fill="none" xmlns="http://www.w3.org/2000/svg">
<path d="M108.697 1.87101C107.039 2.57126 104.6 5.77889 99.2325 14.2606L94.8488 21.1639L90.2456 20.9681C87.6617 20.8522 85.0778 20.7363 84.4596 20.7199C83.388 20.7179 82.9978 20.1006 78.347 11.3431C75.5802 6.2137 72.8945 1.69342 72.3678 1.27836C71.1292 0.364177 69.3693 0.402013 65.0063 1.54786C60.7837 2.58131 47.3862 7.68371 43.9614 9.5194C39.8269 11.7374 39.7851 12.0266 42.2705 21.5185C43.4068 25.908 44.5754 30.6203 44.8362 32.0153L45.3089 34.5189L41.8981 37.5055C40.0275 39.166 38.1609 40.9162 37.694 41.4528L36.8265 42.3798L26.179 39.3534C20.3301 37.6679 15.1854 36.302 14.7856 36.2967C12.7331 36.2898 12.4437 36.7308 6.14916 50.6029L0.202513 63.7084L0.661205 65.0611C1.18137 66.5738 0.638156 66.1953 11.6974 73.2384C16.2576 76.188 20.0357 78.6947 20.0767 78.8014C20.1382 78.9613 20.082 80.1685 19.9391 81.4683C19.8166 82.8214 19.7366 85.5585 19.7694 87.5543L19.8358 91.1502L15.1115 93.5849C1.84223 100.374 1.27681 100.734 0.498282 102.45C-0.114603 103.8 -0.120235 104.502 0.427431 106.644C2.13191 113.228 9.43767 131.202 10.923 132.36C11.3756 132.742 12.3351 133.089 12.9738 133.159C13.592 133.175 18.7624 132.22 24.3909 130.944L34.6623 128.693L37.409 131.7C38.9345 133.361 40.6658 135.159 41.3075 135.714C42.6691 136.948 42.8861 135.682 39.2688 148.48C37.8731 153.526 36.6518 157.99 36.6138 158.369C36.5594 158.784 36.7966 159.64 37.1332 160.277C37.7449 161.391 38.2471 161.663 51.18 167.531L64.5946 173.618L65.7538 173.132C66.4509 172.876 67.4004 172.162 67.9004 171.553C69.2845 169.98 73.4811 163.784 76.7897 158.462L79.6559 153.819L84.2962 154.032C86.8431 154.131 89.464 154.264 90.0822 154.28C91.1372 154.319 91.507 154.883 96.0016 163.393C98.6163 168.365 101.302 172.886 101.944 173.441C103.379 174.709 104.723 174.702 109.626 173.449C114.171 172.298 128.422 166.79 131.36 165.042C134.67 163.066 134.737 162.524 132.448 153.782C131.401 149.785 130.237 145.163 129.927 143.481L129.303 140.425L132.743 137.275C134.647 135.542 136.551 133.809 136.968 133.382C137.699 132.657 138.028 132.718 147.943 135.588C153.59 137.226 158.734 138.592 159.39 138.625C161.776 138.783 162.082 138.306 168.426 124.324C174.853 110.16 174.869 110.123 172.866 108.334C172.282 107.849 167.923 104.947 163.12 101.843L154.411 96.2183L154.59 93.658C154.672 92.1983 154.731 89.4079 154.719 87.4654L154.706 83.8497L159.414 81.4516C172.592 74.6651 173.265 74.266 174.027 72.5867C174.59 71.3455 174.592 70.5539 174.003 68.3058C172.283 61.3622 165.199 43.8847 163.656 42.6563C163.166 42.2581 162.26 41.891 161.642 41.8747C161.04 41.8218 155.854 42.8139 150.205 44.0365L139.842 46.2901L137.606 43.7345C136.327 42.3179 134.596 40.5198 133.707 39.7204C132.251 38.3994 132.091 38.0627 132.37 36.9564C132.557 36.2489 133.84 31.5487 135.273 26.52C136.669 21.4745 137.89 17.0102 137.928 16.6312C137.982 16.2157 137.745 15.3597 137.409 14.7227C136.797 13.6087 136.295 13.3368 123.362 7.46851L109.947 1.38161L108.697 1.87101ZM107.138 65.8753C110.729 69.0896 112.964 72.4368 114.886 77.3591C116.771 82.2646 117.323 86.1689 116.827 91.006C116.354 95.9863 112.81 103.798 109.373 107.434C106.06 110.993 102.758 113.148 97.8246 114.96C92.8914 116.772 88.9543 117.274 84.0633 116.728C80.9976 116.393 80.1327 116.133 75.2782 113.93C70.4238 111.727 69.6582 111.248 67.3876 109.161C63.7555 105.84 61.5411 102.546 59.6558 97.6409C57.7705 92.7354 57.2184 88.8311 57.7152 83.994C58.0184 80.962 58.2717 80.1084 60.4416 75.3262C62.6116 70.544 63.0872 69.7913 65.1692 67.5664C72.3529 59.9086 82.8697 56.6246 93.3872 58.7557C97.3091 59.5668 104.016 63.006 107.138 65.8753Z" fill="#269C0D"/>
</svg>
